<svg width="28" height="28" viewBox="0 0 28 28" fill="none" xmlns="http://www.w3.org/2000/svg">
<path d="M7.26852 1.88058C7.47685 1.31758 8.27315 1.31758 8.48148 1.88058L9.41522 4.40397C9.54622 4.75799 9.82534 5.0371 10.1793 5.1681L12.7028 6.10185C13.2657 6.31018 13.2657 7.10647 12.7028 7.31481L10.1793 8.24855C9.82534 8.37955 9.54622 8.65867 9.41522 9.01268L8.48149 11.5361C8.27316 12.099 7.47685 12.099 7.26852 11.5361L6.33478 9.01268C6.20377 8.65867 5.92466 8.37955 5.57064 8.24855L3.04725 7.31482C2.48425 7.10648 2.48425 6.31018 3.04725 6.10185L5.57064 5.1681C5.92466 5.0371 6.20377 4.75799 6.33478 4.40397L7.26852 1.88058Z" fill="#FB439D"/>
<path fill-rule="evenodd" clip-rule="evenodd" d="M8.29125 18.5241C7.40446 19.4101 6.78622 20.0277 6.45512 20.827C6.12402 21.6264 6.12444 22.5003 6.12505 23.7538L6.12511 25.6667C6.12511 26.1499 6.51686 26.5417 7.00011 26.5417H8.913C10.1665 26.5424 11.0404 26.5427 11.8397 26.2116C12.6391 25.8805 13.2567 25.2623 14.1427 24.3755L23.8672 14.6511C24.398 14.121 24.8107 13.709 25.0443 13.2378C25.4854 12.3475 25.4854 11.3024 25.0443 10.4122C24.8107 9.94094 24.398 9.52896 23.8672 8.99892C23.3371 8.468 22.7259 7.85604 22.2546 7.62254C21.3644 7.18138 20.3191 7.18138 19.429 7.62254C18.9578 7.85604 18.5458 8.26871 18.0157 8.79963L16.8053 10.0101L19.8687 13.0737C20.2104 13.4154 20.2104 13.9694 19.8687 14.3112C19.527 14.6529 18.973 14.6529 18.6313 14.3112L15.5678 11.2476L8.29125 18.5241Z" fill="#FB439D"/>
</svg>
