<svg width="256" height="148" viewBox="0 0 256 148" fill="none" xmlns="http://www.w3.org/2000/svg">
<path d="M39.2715 146.129L38.8545 146.059C17.0753 142.403 0.500977 123.693 0.500977 101.168L0.514648 100.034C1.1027 76.2951 20.1019 57.0539 43.9668 55.7051L44.5439 55.6729L44.4287 55.1055C43.8292 52.1762 43.5127 49.1452 43.5127 46.041C43.5127 21.2887 63.5266 1.13835 88.4678 0.514648L89.6592 0.5C111.15 0.5 129.205 14.9981 134.341 34.6162L134.522 35.3105L135.11 34.8994C142.4 29.805 151.253 26.7448 160.821 26.5586L161.749 26.5498C181.276 26.5498 197.967 38.5189 204.707 55.4238L204.842 55.7617L205.205 55.7373C205.996 55.684 206.792 55.6488 207.593 55.6348L208.396 55.6279C233.888 55.6279 254.542 76.0229 254.542 101.168C254.542 124.105 237.356 143.086 214.988 146.244L214.559 146.305V146.709H39.2715V146.129Z" fill="#FCFCFC" stroke="#EFEFEF"/>
<path d="M144.042 40.9733C161.619 31.1046 183.869 37.3539 193.737 54.9314" stroke="#EEEEEE"/>
<path d="M92.1084 0.166992C93.0533 0.214443 93.9907 0.288481 94.9199 0.390625C94.889 0.663339 95.0845 0.910407 95.3574 0.943359C96.6173 1.09536 97.8616 1.29773 99.0879 1.54785C99.3575 1.6028 99.6194 1.4291 99.6758 1.16016C100.599 1.35878 101.513 1.58418 102.415 1.83594C102.34 2.10034 102.493 2.37631 102.757 2.45312C103.972 2.80637 105.167 3.20813 106.339 3.65527C106.596 3.75314 106.883 3.62444 106.982 3.36816C107.86 3.71375 108.723 4.08574 109.573 4.48145C109.456 4.72988 109.563 5.02679 109.811 5.14551C110.95 5.69108 112.064 6.28192 113.149 6.91504C113.387 7.05342 113.69 6.97283 113.83 6.73633C114.639 7.21975 115.432 7.72628 116.207 8.25586C116.051 8.48197 116.107 8.79241 116.332 8.9502C117.366 9.67294 118.37 10.437 119.339 11.2393C119.551 11.4146 119.864 11.3853 120.04 11.1748C120.758 11.7826 121.457 12.4123 122.137 13.0615C121.947 13.2593 121.952 13.5737 122.148 13.7656C123.05 14.6459 123.915 15.563 124.741 16.5137C124.921 16.721 125.235 16.7435 125.443 16.5654C126.052 17.2818 126.639 18.017 127.204 18.7695C126.985 18.9337 126.938 19.2435 127.101 19.4648C127.845 20.4794 128.548 21.5256 129.207 22.6006C129.35 22.8345 129.655 22.9083 129.89 22.7676C130.372 23.5735 130.83 24.395 131.263 25.2314C131.02 25.3571 130.922 25.6563 131.046 25.9014C131.611 27.0231 132.131 28.1709 132.603 29.3428C132.705 29.5972 132.992 29.7204 133.247 29.6211C133.588 30.495 133.902 31.3816 134.189 32.2803C133.929 32.3635 133.783 32.6412 133.863 32.9033C134.042 33.4837 134.209 34.0692 134.364 34.6592V36.5947C134.364 36.8709 134.588 37.0947 134.864 37.0947V40.0967C134.588 40.0967 134.364 40.3207 134.364 40.5967V44.5996C134.364 44.8756 134.588 45.0996 134.864 45.0996V48.1016C134.588 48.1016 134.364 48.3254 134.364 48.6016V52.6035C134.364 52.8797 134.588 53.1035 134.864 53.1035V56.1064C134.588 56.1064 134.364 56.3303 134.364 56.6064V60.6084C134.364 60.8845 134.588 61.1084 134.864 61.1084V64.1104C134.588 64.1104 134.364 64.3343 134.364 64.6104V68.6123C134.364 68.8884 134.588 69.1123 134.864 69.1123V72.1152C134.588 72.1152 134.364 72.3391 134.364 72.6152V76.6172C134.364 76.8933 134.588 77.1172 134.864 77.1172V80.1191C134.588 80.1191 134.364 80.3431 134.364 80.6191V84.6221C134.364 84.898 134.588 85.1221 134.864 85.1221V88.124C134.588 88.124 134.364 88.3479 134.364 88.624V92.626C134.364 92.9021 134.588 93.126 134.864 93.126V96.1279C134.588 96.1279 134.364 96.352 134.364 96.6279V100.631C134.364 100.907 134.588 101.131 134.864 101.131V104.133C134.588 104.133 134.364 104.357 134.364 104.633V108.635C134.364 108.911 134.588 109.135 134.864 109.135V112.138C134.588 112.138 134.364 112.362 134.364 112.638V116.64C134.364 116.916 134.588 117.14 134.864 117.14V120.142C134.588 120.142 134.364 120.366 134.364 120.642V124.644C134.364 124.92 134.588 125.144 134.864 125.144V128.146C134.588 128.146 134.364 128.37 134.364 128.646V132.648C134.364 132.925 134.588 133.148 134.864 133.148V136.15C134.588 136.15 134.364 136.374 134.364 136.65V140.653C134.364 140.929 134.588 141.153 134.864 141.153V144.155C134.588 144.155 134.364 144.379 134.364 144.655V146.156H132.863C132.587 146.156 132.363 146.38 132.363 146.656H129.361C129.361 146.38 129.137 146.156 128.861 146.156H124.858C124.582 146.156 124.358 146.38 124.358 146.656H121.356C121.356 146.38 121.133 146.156 120.856 146.156H116.854C116.578 146.156 116.354 146.38 116.354 146.656H113.353C113.353 146.38 113.129 146.156 112.853 146.156H108.85C108.574 146.156 108.35 146.38 108.35 146.656H105.348C105.348 146.38 105.124 146.156 104.848 146.156H100.846C100.57 146.156 100.346 146.38 100.346 146.656H97.3438C97.3438 146.38 97.1197 146.156 96.8438 146.156H92.8408C92.5648 146.156 92.3408 146.38 92.3408 146.656H89.3389C89.3389 146.38 89.115 146.156 88.8389 146.156H84.8369C84.5608 146.156 84.3369 146.38 84.3369 146.656H81.335C81.335 146.38 81.1109 146.156 80.835 146.156H76.832C76.5561 146.156 76.332 146.38 76.332 146.656H73.3301C73.3301 146.38 73.1062 146.156 72.8301 146.156H68.8281C68.552 146.156 68.3281 146.38 68.3281 146.656H65.3262C65.3262 146.38 65.1021 146.156 64.8262 146.156H60.8232C60.5473 146.156 60.3232 146.38 60.3232 146.656H57.3213C57.3213 146.38 57.0974 146.156 56.8213 146.156H52.8193C52.5432 146.156 52.3193 146.38 52.3193 146.656H49.3174C49.3174 146.38 49.0934 146.156 48.8174 146.156H44.8145C44.5385 146.156 44.3145 146.38 44.3145 146.656H41.3125C41.3125 146.38 41.0886 146.156 40.8125 146.156H38.8564C38.2073 146.047 37.5624 145.924 36.9229 145.788C36.6547 145.731 36.3908 145.901 36.3311 146.168C35.3322 145.944 34.3455 145.69 33.3721 145.404C33.4494 145.142 33.3016 144.865 33.0391 144.785C31.7535 144.393 30.4916 143.947 29.2568 143.449C29.0023 143.347 28.7131 143.469 28.6084 143.722C27.6646 143.33 26.7371 142.907 25.8262 142.457C25.9472 142.212 25.8498 141.915 25.6055 141.791L24.7139 141.326C23.8284 140.852 22.9607 140.35 22.1113 139.821L22.0195 139.776C21.8033 139.697 21.5533 139.775 21.4248 139.977C20.5642 139.428 19.7228 138.853 18.9023 138.252C19.0643 138.031 19.0194 137.721 18.7998 137.557C17.7283 136.753 16.6935 135.905 15.6982 135.015L15.6162 134.955C15.4167 134.838 15.1566 134.873 14.9951 135.05C14.2428 134.362 13.5136 133.65 12.8086 132.915C13.0065 132.726 13.016 132.412 12.8281 132.212L12.1494 131.474C11.479 130.728 10.8332 129.959 10.2129 129.171L10.1426 129.099C9.96635 128.949 9.7043 128.938 9.51465 129.084C8.89375 128.277 8.29932 127.449 7.73242 126.602C7.96001 126.449 8.02409 126.143 7.87402 125.913L7.33496 125.069C6.80556 124.219 6.30415 123.349 5.83105 122.463L5.77441 122.379C5.62692 122.201 5.37064 122.144 5.1582 122.255C4.68934 121.353 4.24987 120.433 3.84082 119.498C4.09219 119.389 4.20883 119.098 4.10156 118.845C3.58144 117.619 3.11388 116.366 2.70215 115.088L2.66211 114.995C2.54855 114.793 2.30612 114.692 2.07715 114.764C1.7766 113.794 1.50777 112.812 1.27148 111.816C1.53849 111.754 1.70602 111.488 1.64551 111.22L1.43652 110.244C1.23827 109.265 1.07197 108.274 0.938477 107.273L0.915039 107.175C0.839381 106.957 0.619317 106.814 0.381836 106.843C0.25901 105.838 0.168415 104.823 0.112305 103.799C0.385755 103.784 0.596959 103.553 0.584961 103.278L0.551758 102.278C0.544416 101.944 0.541016 101.609 0.541016 101.272C0.541018 100.95 0.54401 100.628 0.550781 100.307L0.582031 99.3457C0.593608 99.0713 0.381228 98.8391 0.107422 98.8252C0.158895 97.8553 0.241166 96.8935 0.352539 95.9404C0.59051 95.9686 0.810193 95.8253 0.884766 95.6064L0.907227 95.5078C1.03029 94.5463 1.18338 93.5941 1.36621 92.6523L1.55957 91.7139C1.61744 91.4453 1.44734 91.1811 1.17969 91.1211C1.39502 90.1767 1.64092 89.2437 1.91406 88.3223C2.14366 88.3907 2.38425 88.2868 2.49512 88.084L2.53418 87.9912C2.91418 86.7594 3.34565 85.5494 3.82617 84.3643C3.9294 84.1096 3.80796 83.82 3.55469 83.7148C3.92793 82.8226 4.32751 81.944 4.75488 81.0811C4.9698 81.1889 5.22582 81.1277 5.37012 80.9463L5.4248 80.8613C6.00831 79.7149 6.63919 78.5955 7.31543 77.5068C7.46012 77.2735 7.38971 76.9679 7.1582 76.8213C7.67658 76.0067 8.21954 75.2089 8.78711 74.4297C9.00834 74.592 9.31915 74.5455 9.4834 74.3252C10.059 73.5526 10.6594 72.7988 11.2822 72.0645L11.9121 71.3369C12.0942 71.1312 12.0759 70.8172 11.8721 70.6338C12.519 69.9182 13.1885 69.2232 13.8789 68.5488C14.0461 68.7205 14.3073 68.7471 14.5029 68.624L14.582 68.5615C15.5094 67.675 16.4747 66.8264 17.4746 66.0186C17.6888 65.8455 17.7227 65.5321 17.5508 65.3174C18.3068 64.7198 19.0834 64.1467 19.877 63.5957C20.0133 63.7928 20.2661 63.8623 20.4795 63.7734L20.5684 63.7256C21.3634 63.1859 22.1768 62.6704 23.0068 62.1797L23.8418 61.6973C24.0814 61.5623 24.1663 61.2596 24.0332 61.0195C24.8774 60.5557 25.7379 60.1176 26.6133 59.7051C26.7149 59.9222 26.9525 60.0326 27.1777 59.9805L27.2734 59.9482C28.4364 59.4153 29.6258 58.928 30.8389 58.4902C31.0971 58.3971 31.2311 58.114 31.1406 57.8555C32.0482 57.5389 32.9681 57.248 33.9004 56.9863C33.9644 57.2177 34.1811 57.3667 34.4121 57.3525L34.5117 57.3359C35.4362 57.087 36.3726 56.8655 37.3193 56.6729L38.2686 56.4902C38.5389 56.4411 38.7177 56.1833 38.6709 55.9131C39.6172 55.7513 40.5731 55.6173 41.5381 55.5127C41.5668 55.7856 41.8114 55.9847 42.085 55.958C42.4034 55.9269 42.7227 55.8987 43.043 55.874L44.0068 55.8096L44.584 55.7773L44.4688 55.21L44.2539 54.0918C44.1872 53.7177 44.1248 53.342 44.0674 52.9648L44.043 52.8662C43.9632 52.6498 43.7406 52.5116 43.5039 52.5449C43.3368 51.3604 43.2156 50.1617 43.1416 48.9502C43.4143 48.9332 43.6229 48.7003 43.6094 48.4268L43.5674 47.2891L43.5527 46.1455C43.5527 45.81 43.5562 45.4754 43.5635 45.1416L43.5967 44.1436C43.6085 43.8689 43.3962 43.6368 43.1221 43.623C43.1779 42.6024 43.2695 41.5908 43.3916 40.5889C43.6291 40.6179 43.8491 40.4759 43.9248 40.2578L43.9482 40.1592C44.081 39.161 44.2462 38.173 44.4434 37.1963L44.6514 36.2236C44.7118 35.9554 44.5438 35.6891 44.2764 35.627C44.5112 34.6353 44.7795 33.6563 45.0781 32.6904C45.3398 32.7719 45.6182 32.6277 45.7021 32.3662C46.0093 31.4101 46.3476 30.4677 46.7158 29.54L47.0947 28.6182C47.2016 28.3653 47.0842 28.074 46.833 27.9648C47.2396 27.0321 47.6746 26.1145 48.1406 25.2148C48.3535 25.3266 48.6102 25.2695 48.7578 25.0908L48.8145 25.0068C49.2851 24.1222 49.7839 23.2545 50.3105 22.4053L50.8467 21.5625C50.9963 21.3325 50.9322 21.0256 50.7041 20.874C51.2677 20.0284 51.8582 19.202 52.4756 18.3965C52.6655 18.5429 52.9273 18.5326 53.1035 18.3828L53.1738 18.3096C53.9966 17.2597 54.8646 16.2457 55.7754 15.2715C55.9628 15.0708 55.9534 14.7572 55.7549 14.5684C56.4558 13.8346 57.1817 13.1246 57.9297 12.4375C58.0915 12.6134 58.3508 12.6478 58.5498 12.5312L58.6318 12.4707C59.6224 11.5802 60.6522 10.7315 61.7188 9.92773C61.9387 9.76195 61.9831 9.44994 61.8184 9.22949C62.6342 8.62826 63.4723 8.0554 64.3281 7.50684C64.4572 7.70836 64.7076 7.78679 64.9238 7.70605L65.0146 7.66113C65.8603 7.13173 66.7247 6.62874 67.6064 6.15332L68.4941 5.68652C68.7382 5.56134 68.8353 5.26344 68.7129 5.01855C69.6192 4.5671 70.5414 4.14166 71.4805 3.74805C71.572 3.97043 71.8054 4.09209 72.0332 4.0498L72.1309 4.02051C73.3609 3.52035 74.6177 3.07139 75.8984 2.67578C76.1604 2.59488 76.3071 2.31878 76.2295 2.05664C77.1981 1.76876 78.1789 1.50754 79.1729 1.28125C79.2248 1.51606 79.4343 1.67532 79.666 1.67285L79.7666 1.66211C80.7374 1.45196 81.7202 1.27182 82.7129 1.12305L83.709 0.984375C83.9811 0.949541 84.1734 0.702456 84.1416 0.430664C85.1437 0.313231 86.1552 0.224598 87.1758 0.170898C87.1888 0.445329 87.4215 0.657871 87.6963 0.646484C88.0283 0.632498 88.3615 0.622264 88.6953 0.615234L89.6992 0.604492C90.3325 0.604492 90.9629 0.616674 91.5898 0.641602C91.8641 0.652412 92.095 0.440567 92.1084 0.166992Z" fill="#FCFCFC" stroke="#E3E2E2" stroke-dasharray="4 4"/>
<path d="M89.041 5.60449C110.862 5.60449 128.541 23.0713 128.541 44.6045C128.541 66.1377 110.862 83.6045 89.041 83.6045C67.2198 83.6045 49.541 66.1377 49.541 44.6045C49.541 23.0713 67.2198 5.60449 89.041 5.60449Z" stroke="#EEEEEE"/>
<g clip-path="url(#clip0_257_19072)">
<line x1="-6.31254" y1="60.7509" x2="87.6875" y2="-33.2491" stroke="#EEEEEE"/>
<line x1="-3.31254" y1="62.7509" x2="90.6875" y2="-31.2491" stroke="#EEEEEE"/>
<line x1="-0.312538" y1="64.7509" x2="93.6875" y2="-29.2491" stroke="#EEEEEE"/>
<line x1="2.68746" y1="66.7509" x2="96.6875" y2="-27.2491" stroke="#EEEEEE"/>
<line x1="5.68746" y1="68.7509" x2="99.6875" y2="-25.2491" stroke="#EEEEEE"/>
<line x1="8.68746" y1="70.7509" x2="102.687" y2="-23.2491" stroke="#EEEEEE"/>
<line x1="11.6875" y1="72.7509" x2="105.687" y2="-21.2491" stroke="#EEEEEE"/>
<line x1="14.6875" y1="74.7509" x2="108.687" y2="-19.2491" stroke="#EEEEEE"/>
<line x1="17.6875" y1="76.7509" x2="111.687" y2="-17.2491" stroke="#EEEEEE"/>
<line x1="20.6875" y1="78.7509" x2="114.687" y2="-15.2491" stroke="#EEEEEE"/>
<line x1="23.6875" y1="80.7509" x2="117.687" y2="-13.2491" stroke="#EEEEEE"/>
<line x1="26.6875" y1="82.7509" x2="120.687" y2="-11.2491" stroke="#EEEEEE"/>
<line x1="29.6875" y1="84.7509" x2="123.687" y2="-9.24906" stroke="#EEEEEE"/>
<line x1="32.6875" y1="86.7509" x2="126.687" y2="-7.24906" stroke="#EEEEEE"/>
<line x1="35.6875" y1="88.7509" x2="129.687" y2="-5.24906" stroke="#EEEEEE"/>
<line x1="38.6875" y1="90.7509" x2="132.687" y2="-3.24906" stroke="#EEEEEE"/>
<line x1="41.6875" y1="92.7509" x2="135.687" y2="-1.24906" stroke="#EEEEEE"/>
<line x1="44.6875" y1="94.7509" x2="138.687" y2="0.750936" stroke="#EEEEEE"/>
<line x1="47.6875" y1="96.7509" x2="141.687" y2="2.75094" stroke="#EEEEEE"/>
<line x1="50.6875" y1="98.7509" x2="144.687" y2="4.75094" stroke="#EEEEEE"/>
<line x1="53.6875" y1="100.751" x2="147.687" y2="6.75094" stroke="#EEEEEE"/>
<line x1="56.6875" y1="102.751" x2="150.687" y2="8.75094" stroke="#EEEEEE"/>
<line x1="59.6875" y1="104.751" x2="153.687" y2="10.7509" stroke="#EEEEEE"/>
<line x1="62.6875" y1="106.751" x2="156.687" y2="12.7509" stroke="#EEEEEE"/>
<line x1="65.6875" y1="108.751" x2="159.687" y2="14.7509" stroke="#EEEEEE"/>
<line x1="68.6875" y1="110.751" x2="162.687" y2="16.7509" stroke="#EEEEEE"/>
<line x1="71.6875" y1="112.751" x2="165.687" y2="18.7509" stroke="#EEEEEE"/>
<line x1="74.6875" y1="114.751" x2="168.687" y2="20.7509" stroke="#EEEEEE"/>
<line x1="77.6875" y1="116.751" x2="171.687" y2="22.7509" stroke="#EEEEEE"/>
<line x1="80.6875" y1="118.751" x2="174.687" y2="24.7509" stroke="#EEEEEE"/>
<line x1="83.6875" y1="120.751" x2="177.687" y2="26.7509" stroke="#EEEEEE"/>
<line x1="86.6875" y1="122.751" x2="180.687" y2="28.7509" stroke="#EEEEEE"/>
</g>
<path d="M209.041 62.6045C230.862 62.6045 248.541 80.0713 248.541 101.604C248.541 123.138 230.862 140.604 209.041 140.604C187.22 140.604 169.541 123.138 169.541 101.604C169.541 80.0713 187.22 62.6045 209.041 62.6045Z" stroke="#EEEEEE"/>
<g clip-path="url(#clip1_257_19072)">
<line x1="115.687" y1="116.751" x2="209.687" y2="22.7509" stroke="#EEEEEE"/>
<line x1="118.687" y1="118.751" x2="212.687" y2="24.7509" stroke="#EEEEEE"/>
<line x1="121.687" y1="120.751" x2="215.687" y2="26.7509" stroke="#EEEEEE"/>
<line x1="124.687" y1="122.751" x2="218.687" y2="28.7509" stroke="#EEEEEE"/>
<line x1="127.687" y1="124.751" x2="221.687" y2="30.7509" stroke="#EEEEEE"/>
<line x1="130.687" y1="126.751" x2="224.687" y2="32.7509" stroke="#EEEEEE"/>
<line x1="133.687" y1="128.751" x2="227.687" y2="34.7509" stroke="#EEEEEE"/>
<line x1="136.687" y1="130.751" x2="230.687" y2="36.7509" stroke="#EEEEEE"/>
<line x1="139.687" y1="132.751" x2="233.687" y2="38.7509" stroke="#EEEEEE"/>
<line x1="142.687" y1="134.751" x2="236.687" y2="40.7509" stroke="#EEEEEE"/>
<line x1="145.687" y1="136.751" x2="239.687" y2="42.7509" stroke="#EEEEEE"/>
<line x1="148.687" y1="138.751" x2="242.687" y2="44.7509" stroke="#EEEEEE"/>
<line x1="151.687" y1="140.751" x2="245.687" y2="46.7509" stroke="#EEEEEE"/>
<line x1="154.687" y1="142.751" x2="248.687" y2="48.7509" stroke="#EEEEEE"/>
<line x1="157.687" y1="144.751" x2="251.687" y2="50.7509" stroke="#EEEEEE"/>
<line x1="160.687" y1="146.751" x2="254.687" y2="52.7509" stroke="#EEEEEE"/>
<line x1="163.687" y1="148.751" x2="257.687" y2="54.7509" stroke="#EEEEEE"/>
<line x1="166.687" y1="150.751" x2="260.687" y2="56.7509" stroke="#EEEEEE"/>
<line x1="169.687" y1="152.751" x2="263.687" y2="58.7509" stroke="#EEEEEE"/>
<line x1="172.687" y1="154.751" x2="266.687" y2="60.7509" stroke="#EEEEEE"/>
<line x1="175.687" y1="156.751" x2="269.687" y2="62.7509" stroke="#EEEEEE"/>
<line x1="178.687" y1="158.751" x2="272.687" y2="64.7509" stroke="#EEEEEE"/>
<line x1="181.687" y1="160.751" x2="275.687" y2="66.7509" stroke="#EEEEEE"/>
<line x1="184.687" y1="162.751" x2="278.687" y2="68.7509" stroke="#EEEEEE"/>
<line x1="187.687" y1="164.751" x2="281.687" y2="70.7509" stroke="#EEEEEE"/>
<line x1="190.687" y1="166.751" x2="284.687" y2="72.7509" stroke="#EEEEEE"/>
<line x1="193.687" y1="168.751" x2="287.687" y2="74.7509" stroke="#EEEEEE"/>
<line x1="196.687" y1="170.751" x2="290.687" y2="76.7509" stroke="#EEEEEE"/>
<line x1="199.687" y1="172.751" x2="293.687" y2="78.7509" stroke="#EEEEEE"/>
<line x1="202.687" y1="174.751" x2="296.687" y2="80.7509" stroke="#EEEEEE"/>
<line x1="205.687" y1="176.751" x2="299.687" y2="82.7509" stroke="#EEEEEE"/>
<line x1="208.687" y1="178.751" x2="302.687" y2="84.7509" stroke="#EEEEEE"/>
</g>
<rect x="93.541" y="105.604" width="33" height="33" rx="3.5" stroke="#EEEEEE"/>
<rect x="97.041" y="109.104" width="26" height="26" rx="2" fill="#EDEDED"/>
<path d="M38.281 135.044L41.001 130.014L41.801 130.064L39.081 135.094L38.281 135.044ZM40.041 136.264C39.521 136.264 39.071 136.114 38.691 135.814C38.311 135.514 38.021 135.088 37.821 134.534C37.621 133.981 37.521 133.324 37.521 132.564C37.521 131.798 37.621 131.138 37.821 130.584C38.021 130.031 38.311 129.604 38.691 129.304C39.071 128.998 39.521 128.844 40.041 128.844C40.5677 128.844 41.0177 128.998 41.391 129.304C41.771 129.604 42.061 130.031 42.261 130.584C42.461 131.138 42.561 131.798 42.561 132.564C42.561 133.324 42.461 133.981 42.261 134.534C42.061 135.088 41.771 135.514 41.391 135.814C41.0177 136.114 40.5677 136.264 40.041 136.264ZM40.041 135.284C40.341 135.284 40.5943 135.178 40.801 134.964C41.0143 134.744 41.1777 134.431 41.291 134.024C41.411 133.618 41.471 133.131 41.471 132.564C41.471 131.984 41.411 131.491 41.291 131.084C41.1777 130.678 41.0143 130.368 40.801 130.154C40.5943 129.934 40.341 129.824 40.041 129.824C39.7477 129.824 39.4943 129.934 39.281 130.154C39.0677 130.368 38.901 130.678 38.781 131.084C38.6677 131.491 38.611 131.984 38.611 132.564C38.611 133.131 38.6677 133.618 38.781 134.024C38.901 134.431 39.0677 134.744 39.281 134.964C39.4943 135.178 39.7477 135.284 40.041 135.284ZM44.2771 135.044L46.9971 130.014L47.7971 130.064L45.0771 135.094L44.2771 135.044ZM46.0371 136.264C45.5171 136.264 45.0671 136.114 44.6871 135.814C44.3071 135.514 44.0171 135.088 43.8171 134.534C43.6171 133.981 43.5171 133.324 43.5171 132.564C43.5171 131.798 43.6171 131.138 43.8171 130.584C44.0171 130.031 44.3071 129.604 44.6871 129.304C45.0671 128.998 45.5171 128.844 46.0371 128.844C46.5638 128.844 47.0138 128.998 47.3871 129.304C47.7671 129.604 48.0571 130.031 48.2571 130.584C48.4571 131.138 48.5571 131.798 48.5571 132.564C48.5571 133.324 48.4571 133.981 48.2571 134.534C48.0571 135.088 47.7671 135.514 47.3871 135.814C47.0138 136.114 46.5638 136.264 46.0371 136.264ZM46.0371 135.284C46.3371 135.284 46.5904 135.178 46.7971 134.964C47.0104 134.744 47.1738 134.431 47.2871 134.024C47.4071 133.618 47.4671 133.131 47.4671 132.564C47.4671 131.984 47.4071 131.491 47.2871 131.084C47.1738 130.678 47.0104 130.368 46.7971 130.154C46.5904 129.934 46.3371 129.824 46.0371 129.824C45.7438 129.824 45.4904 129.934 45.2771 130.154C45.0638 130.368 44.8971 130.678 44.7771 131.084C44.6638 131.491 44.6071 131.984 44.6071 132.564C44.6071 133.131 44.6638 133.618 44.7771 134.024C44.8971 134.431 45.0638 134.744 45.2771 134.964C45.4904 135.178 45.7438 135.284 46.0371 135.284ZM51.7632 136.104V131.044H49.9432V130.154H50.8432C51.1032 130.154 51.3132 130.118 51.4732 130.044C51.6332 129.964 51.7499 129.841 51.8232 129.674C51.8965 129.508 51.9332 129.284 51.9332 129.004H52.8132V136.104H51.7632ZM49.5932 136.104V135.114H54.4732V136.104H49.5932Z" fill="#E3E3E3"/>
<circle cx="36.041" cy="65.1045" r="3" fill="#FF0302"/>
<circle cx="24.041" cy="71.1045" r="3" fill="#FFB152"/>
<circle cx="15.041" cy="80.1045" r="3" fill="#02B96C"/>
<path d="M33.2842 133.985C14.3727 127.005 4.70002 106.016 11.6797 87.1045" stroke="#E3E3E3"/>
<defs>
<clipPath id="clip0_257_19072">
<rect x="55.041" y="11.1045" width="68" height="68" rx="34" fill="white"/>
</clipPath>
<clipPath id="clip1_257_19072">
<rect x="175.041" y="67.1045" width="68" height="68" rx="34" fill="white"/>
</clipPath>
</defs>
</svg>
