<svg width="109" height="109" viewBox="0 0 109 109" fill="none" xmlns="http://www.w3.org/2000/svg">
<g filter="url(#filter0_d_379_3166)">
<rect x="2.04102" y="1.38477" width="104" height="104" rx="8" fill="white"/>
<rect x="2.54102" y="1.88477" width="103" height="103" rx="7.5" stroke="url(#paint0_linear_379_3166)"/>
<path d="M54.041 9.38477H14.041C11.8319 9.38477 10.041 11.1756 10.041 13.3848V93.3848C10.041 95.5939 11.8319 97.3848 14.041 97.3848H54.041" stroke="#E6E6E6" stroke-dasharray="4 4"/>
<path d="M54.041 9.38477H94.041C96.2502 9.38477 98.041 11.1756 98.041 13.3848V93.3848C98.041 95.5939 96.2502 97.3848 94.041 97.3848H54.041" stroke="#E6E6E6"/>
<g filter="url(#filter1_i_379_3166)">
<path d="M44.7464 31.8353C45.7864 31.3872 47.7363 30.8464 49.1535 30.6221C50.2197 30.4373 51.403 30.3978 54.5491 30.3848H69.7202H78.041C77.4456 37.6351 70.926 37.6823 69.7202 37.8096C68.5144 37.9369 59.1648 37.8096 59.1648 37.8096C50.8177 37.9152 49.7259 38.0469 47.1907 39.1284C43.5893 40.6716 40.8717 43.2827 39.1555 46.8437C38.1284 48.9666 37.8946 49.956 37.7646 52.8836C37.5693 56.7344 38.7527 60.0976 41.4179 63.3681C42.7959 65.0565 45.6045 66.9952 47.7888 67.7598C49.6216 68.4062 50.103 68.4853 52.2739 68.5644C54.1463 68.6305 54.5882 68.6039 55.7581 68.3536C57.2534 68.0366 58.6186 67.5224 60.14 66.7048C62.8052 65.2673 65.1061 62.7618 66.4585 59.8337C67.7328 57.0644 68.2009 53.2395 67.4204 51.9868C67.2513 51.7099 66.9394 51.367 66.7313 51.2217C65.8732 50.5889 65.7695 50.5889 58.6967 50.655L52.053 50.7341L51.5068 51.1031C51.2077 51.3009 50.7921 51.7495 50.5706 52.0789C50.0768 52.8836 50.0768 53.543 50.5577 54.5058C50.844 55.0991 51.0258 55.2839 51.6111 55.5738L52.3258 55.9433H57.4352H62.5452V56.2598C62.5452 56.6158 61.8947 58.1064 61.3881 58.9104C59.3467 62.168 55.4591 64.0541 51.7411 63.5925C49.2316 63.289 47.2297 62.3132 45.5392 60.5723C43.9531 58.95 43.0303 57.1169 42.705 54.9545C42.146 51.3008 43.5502 47.5557 46.2802 45.3531C47.6326 44.2851 48.5687 43.7839 50.0768 43.3353L51.2987 42.9663L58.4495 43.0058C62.61 43.0188 65.9514 43.0849 66.4457 43.177C67.5375 43.3488 68.9937 43.7839 69.5656 44.1133C70.7361 44.7728 71.217 45.0762 71.516 45.3531C71.6979 45.5248 71.867 45.6565 71.9189 45.6565C72.0623 45.6565 72.907 46.5137 73.206 46.9753C73.3751 47.2257 73.5569 47.4635 73.596 47.5031C73.986 47.8591 75.0265 50.4968 75.2474 51.6574C75.5984 53.5565 75.2212 57.8159 74.4931 60.1242C73.0632 64.687 70.0599 69.0656 66.5757 71.6903C62.3762 74.8421 57.8648 76.3848 52.8592 76.3848C49.0235 76.3848 45.8645 75.6462 42.6531 74.011C37.1403 71.2021 33.0708 66.4545 31.238 60.6909C30.6266 58.7522 30.4966 58.1985 30.2366 56.3389C29.5738 51.5252 30.6137 46.2368 33.0842 41.9639C35.047 38.5481 37.9465 35.581 41.2879 33.5762C42.6012 32.7851 42.8612 32.6529 43.6931 32.2839C43.9402 32.1782 44.4212 31.9805 44.7464 31.8353Z" fill="#EAEAEA"/>
</g>
<path d="M47.041 90.3848H19.041C17.9364 90.3848 17.041 89.4893 17.041 88.3848V60.3848" stroke="#EDEDED"/>
<path d="M61.041 15.3848H89.041C90.1456 15.3848 91.041 16.2802 91.041 17.3848V45.3848" stroke="#EDEDED" stroke-dasharray="4 4"/>
</g>
<defs>
<filter id="filter0_d_379_3166" x="0.0410156" y="0.384766" width="108" height="108" filterUnits="userSpaceOnUse" color-interpolation-filters="sRGB">
<feFlood flood-opacity="0" result="BackgroundImageFix"/>
<feColorMatrix in="SourceAlpha" type="matrix" values="0 0 0 0 0 0 0 0 0 0 0 0 0 0 0 0 0 0 127 0" result="hardAlpha"/>
<feOffset dy="1"/>
<feGaussianBlur stdDeviation="1"/>
<feColorMatrix type="matrix" values="0 0 0 0 0 0 0 0 0 0 0 0 0 0 0 0 0 0 0.05 0"/>
<feBlend mode="normal" in2="BackgroundImageFix" result="effect1_dropShadow_379_3166"/>
<feBlend mode="normal" in="SourceGraphic" in2="effect1_dropShadow_379_3166" result="shape"/>
</filter>
<filter id="filter1_i_379_3166" x="30.041" y="30.3848" width="48" height="50" filterUnits="userSpaceOnUse" color-interpolation-filters="sRGB">
<feFlood flood-opacity="0" result="BackgroundImageFix"/>
<feBlend mode="normal" in="SourceGraphic" in2="BackgroundImageFix" result="shape"/>
<feColorMatrix in="SourceAlpha" type="matrix" values="0 0 0 0 0 0 0 0 0 0 0 0 0 0 0 0 0 0 127 0" result="hardAlpha"/>
<feOffset dy="4"/>
<feGaussianBlur stdDeviation="2"/>
<feComposite in2="hardAlpha" operator="arithmetic" k2="-1" k3="1"/>
<feColorMatrix type="matrix" values="0 0 0 0 0.882353 0 0 0 0 0.882353 0 0 0 0 0.882353 0 0 0 1 0"/>
<feBlend mode="normal" in2="shape" result="effect1_innerShadow_379_3166"/>
</filter>
<linearGradient id="paint0_linear_379_3166" x1="54.041" y1="105.385" x2="54.041" y2="1.38477" gradientUnits="userSpaceOnUse">
<stop stop-color="#EFEFEF"/>
<stop offset="1" stop-color="#FB439D"/>
</linearGradient>
</defs>
</svg>
