<svg width="104" height="100" viewBox="0 0 104 100" fill="none" xmlns="http://www.w3.org/2000/svg">
<path d="M64.8047 43.8193C64.8019 43.5434 64.5767 43.3217 64.3008 43.3242L62.083 43.3447H62.0811L60.4893 43.3633C60.2477 43.3661 60.0479 43.5402 60.0039 43.7686L59.9951 43.8691L57.8086 43.8945C57.8049 43.6188 57.5796 43.3981 57.3037 43.4014L54.1191 43.4385C53.8432 43.4417 53.622 43.6684 53.625 43.9443L51.4385 43.9697C51.4347 43.6941 51.2094 43.4733 50.9336 43.4766L49.3418 43.4951C49.0494 43.4986 48.7581 43.5215 48.4707 43.5635C48.1975 43.6034 48.008 43.8577 48.0479 44.1309C48.049 44.1384 48.0513 44.1459 48.0527 44.1533C47.8521 44.1998 47.6539 44.2556 47.459 44.3223C47.4564 44.3156 47.455 44.3084 47.4521 44.3018C47.3555 44.0804 47.118 43.9635 46.8906 44.0117L46.7939 44.043C46.5277 44.1592 46.2686 44.2937 46.0186 44.4453L46.0029 44.4551C45.6821 44.6659 45.3923 44.9122 45.1338 45.1855L44.8857 45.4678C44.7109 45.6814 44.7416 45.9969 44.9551 46.1719C44.9622 46.1777 44.9712 46.1812 44.9785 46.1865C44.6623 46.6618 44.4204 47.1926 44.2559 47.749C44.2493 47.7474 44.243 47.7446 44.2363 47.7432C44 47.693 43.7668 47.8182 43.6738 48.0312L43.6436 48.1279C43.5414 48.6085 43.4905 49.0996 43.4912 49.585C43.4916 49.818 43.5036 50.0504 43.5283 50.2852C43.5572 50.5598 43.8035 50.7594 44.0781 50.7305C44.0841 50.7298 44.0898 50.7274 44.0957 50.7266C44.1129 50.824 44.1329 50.9224 44.1543 51.0225C44.1502 51.0234 44.1457 51.0243 44.1416 51.0254C43.8751 51.0965 43.7164 51.3701 43.7871 51.6367C43.8427 51.8456 43.9062 52.0608 43.9766 52.2832L43.9873 52.3184L44.0029 52.3506C44.1566 52.6671 44.3169 52.9521 44.4912 53.2109C44.6455 53.4399 44.9565 53.4999 45.1855 53.3457C45.1928 53.3408 45.1981 53.3333 45.2051 53.3281C45.3877 53.5446 45.5854 53.7366 45.8076 53.9131C45.8032 53.9193 45.7981 53.9252 45.7939 53.9316C45.6443 54.1637 45.7113 54.4734 45.9434 54.623C46.203 54.7905 46.4858 54.9461 46.7959 55.0986C46.7989 55.1001 46.8026 55.1002 46.8057 55.1016C46.8071 55.1022 46.8081 55.1038 46.8096 55.1045C47.0342 55.2067 47.2639 55.2967 47.4971 55.374C47.759 55.4609 48.0418 55.3194 48.1289 55.0576C48.1313 55.0505 48.1318 55.0423 48.1338 55.0352C48.2545 55.065 48.3758 55.0914 48.498 55.1143C48.4969 55.1216 48.4949 55.1292 48.4941 55.1367C48.4649 55.4111 48.664 55.6571 48.9385 55.6865C49.1828 55.7127 49.429 55.7266 49.6758 55.7266H52.0947C52.3363 55.7266 52.5383 55.5549 52.585 55.3271L52.5947 55.2266H56.4346L56.4443 55.3271C56.491 55.5549 56.693 55.7266 56.9346 55.7266H62.1221C62.3637 55.7266 62.5656 55.5549 62.6123 55.3271L62.6221 55.2266H67.1582L67.168 55.3271C67.2147 55.5549 67.4166 55.7266 67.6582 55.7266H69.9268C69.9267 55.73 69.9258 55.7338 69.9258 55.7373V55.9072C69.9258 55.9622 69.9028 56.1075 69.8291 56.3604C69.7597 56.5985 69.6571 56.8933 69.5283 57.2266C69.43 57.4815 69.5552 57.767 69.8076 57.8691C69.5547 58.4804 69.2428 59.1565 68.917 59.8066C68.6737 59.6845 68.3767 59.7784 68.25 60.0205C67.9934 60.511 67.7354 60.9664 67.4961 61.3438V61.3447C67.1414 61.907 66.7598 62.4502 66.3545 62.9727C66.1871 63.1884 66.2247 63.4974 66.4365 63.668C65.7876 64.4653 65.0833 65.2128 64.332 65.9072C64.1716 65.7321 63.9148 65.6962 63.7158 65.8105L63.6338 65.8691C62.7617 66.6396 61.8287 67.3391 60.8486 67.96L60.4248 68.2217C60.1908 68.3629 60.115 68.6649 60.252 68.9004C59.361 69.4108 58.4373 69.8606 57.4883 70.2441C57.4008 70.0222 57.1718 69.8968 56.9443 69.9336L56.8467 69.96C55.6023 70.431 54.318 70.7875 53.0146 71.0195C52.746 71.0676 52.5666 71.3214 52.6094 71.5898C51.5957 71.746 50.5723 71.8281 49.5469 71.833C49.547 71.5614 49.3304 71.3384 49.0576 71.333C48.3967 71.3198 47.736 71.2735 47.0781 71.1924H47.0762C46.4451 71.1166 45.8298 71.0208 45.2295 70.9053L45.1279 70.8955C44.8977 70.8984 44.6927 71.0613 44.6445 71.2949C43.7084 71.0952 42.8069 70.8466 41.9375 70.5469C42.0289 70.2897 41.8983 70.0063 41.6416 69.9111C40.4667 69.4754 39.3533 68.9425 38.2939 68.3086L38.2021 68.2656C37.9846 68.1894 37.7364 68.2721 37.6113 68.4756C36.8272 67.9802 36.0719 67.4293 35.3428 66.8213C35.5205 66.6131 35.4978 66.3004 35.291 66.1201C34.8297 65.7178 34.379 65.2905 33.9375 64.8389L33.9355 64.8379L33.3477 64.2207C33.1567 64.0134 32.9708 63.8042 32.79 63.5938C32.6112 63.3859 32.2982 63.3602 32.0889 63.5361C31.5607 62.8948 31.0767 62.2379 30.6357 61.5645C30.8658 61.4172 30.9367 61.1135 30.792 60.8809L30.5713 60.5186C30.0673 59.6696 29.6306 58.7939 29.2598 57.8887L29.2129 57.7988C29.0844 57.6072 28.8355 57.5252 28.6133 57.6133C28.3241 56.8551 28.0795 56.0765 27.877 55.2764C28.1426 55.2121 28.3083 54.9478 28.2471 54.6807L28.1572 54.2725C28.0714 53.8622 27.9966 53.4459 27.9326 53.0234V53.0215C27.8368 52.3992 27.7686 51.7755 27.7266 51.1523L27.709 51.0527C27.6478 50.8308 27.4392 50.6749 27.2012 50.6875C27.1579 49.7341 27.1749 48.7832 27.25 47.8408C27.4876 47.8615 27.7019 47.713 27.7705 47.4932L27.791 47.3945C27.9185 46.1397 28.1502 44.9019 28.4814 43.6982C28.554 43.4342 28.401 43.1618 28.1387 43.0859C28.4115 42.1727 28.7407 41.2801 29.123 40.4141C29.3403 40.5121 29.591 40.4432 29.7285 40.2588L29.7812 40.1719C30.2484 39.1742 30.7882 38.2154 31.3975 37.3076L31.6631 36.9219C31.8204 36.6982 31.7683 36.3907 31.5479 36.2305C32.1134 35.4659 32.7292 34.7413 33.3926 34.0625C33.5857 34.2543 33.897 34.257 34.0928 34.0664C34.5404 33.6304 35.0088 33.2155 35.4971 32.8242L35.4961 32.8232C35.9896 32.4362 36.457 32.087 36.9062 31.7666L37.3516 31.4551C37.5777 31.3003 37.636 30.993 37.4844 30.7656C38.567 30.0552 39.5962 29.5022 40.7295 29.0283C40.819 29.2499 41.0491 29.3731 41.2764 29.334L41.374 29.3066C41.8765 29.1105 42.4045 28.9267 42.9717 28.748L43.5527 28.5713L43.5547 28.5703L44.2168 28.3721C44.4811 28.2926 44.6311 28.0134 44.5518 27.749L44.917 27.6387L44.918 27.6396C44.9974 27.904 45.2756 28.0539 45.54 27.9746L46.1318 27.7969L47.9922 27.8076C48.2683 27.8091 48.4936 27.5867 48.4951 27.3105L48.4941 27.3096L51.3682 27.3262C51.3666 27.6022 51.5893 27.8274 51.8652 27.8291L55.7393 27.8506C56.0153 27.8519 56.2397 27.6286 56.2412 27.3525L59.1152 27.3691C59.1138 27.6452 59.3362 27.8705 59.6123 27.8721L61.5488 27.8828H61.5498C62.2846 27.8851 63.008 27.8878 63.7168 27.8916C63.9928 27.8931 64.2171 27.6705 64.2188 27.3945C65.3735 27.4013 66.4883 27.4094 67.5527 27.4199C67.5498 27.696 67.7717 27.9229 68.0479 27.9258C69.6209 27.9424 71.0764 27.9631 72.3779 27.9873C72.6537 27.9923 72.8802 27.7727 72.8857 27.4971C74.1745 27.5227 75.2985 27.5535 76.2197 27.5859C76.2105 27.8605 76.4244 28.0916 76.6992 28.1025C77.8303 28.1476 78.5379 28.1962 78.7861 28.2422V28.2432L78.7998 28.2451C79.334 28.3286 79.9125 28.4418 80.502 28.5762C80.7698 28.6372 81.0354 28.4709 81.0986 28.2041C81.9445 28.4108 82.7899 28.6524 83.541 28.9023C83.4518 29.161 83.5874 29.4439 83.8457 29.5361C84.5071 29.7723 85.043 30.0024 85.3887 30.2002L85.3926 30.2021C85.7904 30.4248 86.1509 30.6283 86.4785 30.8154C86.7177 30.9521 87.0218 30.8694 87.1592 30.6309C87.6715 30.9275 88.0946 31.18 88.4492 31.4033C88.3008 31.6323 88.3642 31.9387 88.5918 32.0908C89.008 32.3687 89.2951 32.591 89.5205 32.7979V32.7988C89.5929 32.8667 89.6644 32.9323 89.7344 32.9941C89.8168 33.0669 89.9169 33.1057 90.0186 33.1152C90.0507 33.2162 90.1135 33.3087 90.207 33.374C90.2721 33.4195 90.3417 33.4638 90.4102 33.499C90.4451 33.517 90.5246 33.557 90.626 33.5762C90.6495 33.5903 90.6861 33.6135 90.7354 33.6504C90.8538 33.739 91.011 33.8738 91.1943 34.0439C91.394 34.229 91.703 34.2188 91.8916 34.0244C92.1199 34.2517 92.3579 34.5025 92.585 34.7549C92.3814 34.9343 92.3582 35.2449 92.5342 35.4531C92.7716 35.734 92.9711 35.9923 93.1055 36.1982L93.1104 36.207C93.1794 36.3086 93.2499 36.4091 93.3184 36.5059C93.4003 36.6213 93.5226 36.6895 93.6523 36.709C93.6317 36.8397 93.662 36.9786 93.749 37.0918C93.8519 37.2257 93.9543 37.3533 94.0146 37.4141L94.0234 37.4229L94.0332 37.4316C94.107 37.4986 94.2525 37.6957 94.457 38.0586C94.6511 38.4029 94.8722 38.8486 95.1064 39.3623C95.2203 39.6119 95.5135 39.7222 95.7637 39.6113C96.2412 40.7026 96.74 41.9921 97.1484 43.1943C96.8889 43.2817 96.748 43.5632 96.833 43.8242C97.1207 44.7078 97.3426 45.5047 97.4561 46.0967C97.5708 46.7144 97.6496 47.4641 97.6934 48.3135C97.7075 48.5877 97.9402 48.7977 98.2139 48.7861C98.2518 49.885 98.2349 51.1089 98.1719 52.3906C97.8979 52.3769 97.6634 52.586 97.6475 52.8604C97.5613 54.3441 97.4138 55.8934 97.2129 57.4043C97.1768 57.6761 97.3661 57.9247 97.6367 57.9639C97.462 59.1996 97.255 60.4023 97.0156 61.5146C96.7481 61.456 96.4822 61.6241 96.4209 61.8916C96.2399 62.6828 96.044 63.417 95.8359 64.0723V64.0732C95.6463 64.6743 95.4435 65.2745 95.2285 65.8721C95.1358 66.1302 95.2689 66.4135 95.5254 66.5088C95.1975 67.3921 94.8431 68.2697 94.4639 69.1396C94.213 69.0305 93.9207 69.1433 93.8086 69.3936C93.2926 70.5471 92.7321 71.6859 92.1328 72.8037C92.0031 73.0456 92.093 73.3467 92.333 73.4785C91.8783 74.3083 91.4031 75.1265 90.9072 75.9297C90.7033 75.8034 90.4432 75.8418 90.2832 76.0088L90.2207 76.0889C89.7119 76.8963 89.1828 77.6881 88.6357 78.4619L88.083 79.2305C87.9205 79.452 87.9676 79.7618 88.1875 79.9258C87.6171 80.6877 87.0293 81.4302 86.4258 82.1504C86.2423 81.9959 85.9804 81.9957 85.7979 82.1377L85.7246 82.207C85.1002 82.9373 84.4591 83.6435 83.8047 84.3223L83.1455 84.9922C82.951 85.1859 82.95 85.4994 83.1416 85.6953C82.4557 86.363 81.7552 87 81.0439 87.6055C80.8892 87.4235 80.6321 87.3788 80.4287 87.4873L80.3447 87.5439C79.8544 87.9509 79.3582 88.3418 78.8584 88.7158C78.5918 88.9145 78.3253 89.111 78.0576 89.3037L77.252 89.873C77.0266 90.0295 76.9693 90.338 77.123 90.5645C76.2893 91.1327 75.4501 91.6729 74.6045 92.1846C74.4804 91.9797 74.232 91.8952 74.0137 91.9707L73.9219 92.0137C73.061 92.5236 72.1939 93.004 71.3203 93.4551L70.4443 93.8965C70.1979 94.0176 70.0953 94.3145 70.2139 94.5615C69.308 94.9954 68.3952 95.3987 67.4746 95.7715C67.3721 95.5174 67.0837 95.3928 66.8281 95.4932C65.5967 95.9768 64.352 96.406 63.0928 96.7803C62.8297 96.8585 62.6795 97.1333 62.7549 97.3965C61.7946 97.6707 60.8259 97.913 59.8486 98.125C59.7905 97.858 59.5291 97.6863 59.2607 97.7412C57.9761 98.0056 56.6756 98.216 55.3594 98.373C55.0873 98.4055 54.8919 98.6512 54.9209 98.9229C53.9347 99.0302 52.9398 99.1089 51.9355 99.1572C51.9222 98.8839 51.6911 98.6711 51.417 98.6816C50.7619 98.7067 50.1028 98.7197 49.4395 98.7197C48.7989 98.7197 48.1672 98.7106 47.5439 98.6914C47.2688 98.6829 47.0391 98.8981 47.0293 99.1729C46.0735 99.1353 45.1362 99.0752 44.2148 98.9912C44.2412 98.7175 44.0415 98.474 43.7676 98.4463L42.8164 98.3408C41.8711 98.2268 40.9422 98.086 40.0264 97.9189L39.9248 97.9111C39.694 97.9162 39.4905 98.0814 39.4453 98.3164C38.5168 98.1364 37.6008 97.9295 36.6943 97.6934C36.7643 97.4283 36.6086 97.1564 36.3438 97.084L35.4375 96.8262C34.534 96.5587 33.6383 96.2619 32.7471 95.9346L32.6484 95.9092C32.4197 95.8746 32.1898 96.0028 32.1055 96.2275C31.2343 95.8968 30.3675 95.5364 29.501 95.1475C29.6137 94.8976 29.5052 94.6034 29.2559 94.4883L28.4043 94.0859C28.1204 93.9487 27.836 93.8088 27.5518 93.665L26.6953 93.2217C26.4118 93.0715 26.1303 92.9186 25.8506 92.7637L25.7568 92.7236C25.5361 92.6545 25.2896 92.7459 25.1719 92.9551C24.3306 92.4784 23.5075 91.9788 22.7012 91.46C22.8492 91.2297 22.7849 90.9232 22.5557 90.7725C21.4783 90.0642 20.4338 89.3177 19.4238 88.5361C19.2071 88.3687 18.8964 88.4072 18.7266 88.6211C17.9689 88.0225 17.2304 87.4046 16.5127 86.7666C16.6944 86.562 16.6786 86.2488 16.4756 86.0645L15.7676 85.4102C15.067 84.7489 14.3879 84.0681 13.7305 83.3691L13.6533 83.3027C13.4647 83.1697 13.2033 83.1817 13.0273 83.3438C12.3739 82.6346 11.7415 81.9081 11.1328 81.1631C11.3457 80.9902 11.3804 80.6785 11.209 80.4639L10.6152 79.7061C10.0295 78.9428 9.46685 78.1622 8.92871 77.3652C8.77474 77.1375 8.4658 77.0764 8.2373 77.2285C7.70709 76.4254 7.20112 75.606 6.71973 74.7715C6.95801 74.6352 7.04212 74.3324 6.90723 74.0928C6.27932 72.9775 5.69559 71.8353 5.1582 70.668L5.10742 70.5801C4.97041 70.3935 4.71682 70.3219 4.49805 70.4209C4.10552 69.5442 3.7381 68.6541 3.39746 67.751C3.65513 67.6553 3.7878 67.3698 3.69336 67.1113L3.37305 66.2061C3.26905 65.9025 3.16739 65.5973 3.06934 65.291C2.78985 64.4108 2.55827 63.6655 2.36035 63L2.32129 62.9062C2.21192 62.702 1.97102 62.5946 1.74023 62.6621C1.34868 61.3059 1.10152 60.2458 0.871094 58.9502C1.14025 58.902 1.32152 58.6474 1.27637 58.377L1.10254 57.2793C1.04362 56.8873 0.9835 56.4664 0.918945 56.0078C0.828492 55.3552 0.75241 54.6984 0.691406 54.0381L0.671875 53.9385C0.604874 53.7173 0.391109 53.566 0.152344 53.5859C0.0713559 52.5883 0.0235724 51.5839 0.0078125 50.5752C0.281755 50.5713 0.502324 50.3478 0.500977 50.0732L0.505859 49.083C0.516394 48.4226 0.54107 47.7609 0.579102 47.0986L0.646484 46.1045C0.667839 45.8308 0.464335 45.5912 0.191406 45.5674C0.279514 44.5684 0.398163 43.5699 0.546875 42.5742C0.783831 42.6098 1.00753 42.4732 1.08887 42.2568L1.11426 42.1592C1.32266 40.8526 1.5837 39.5514 1.89551 38.2627C1.95981 37.9961 1.79758 37.7272 1.53223 37.6602C1.77815 36.686 2.05202 35.7188 2.35547 34.7617C2.58387 34.8346 2.82669 34.7349 2.94141 34.5342L2.98242 34.4414C3.29257 33.496 3.63102 32.5609 3.99707 31.6387L4.37207 30.7207C4.47867 30.4675 4.36126 30.1758 4.10938 30.0674C4.50981 29.1429 4.93823 28.2329 5.39453 27.3398C5.60788 27.4496 5.8635 27.3922 6.00977 27.2129L6.06543 27.1289C6.2194 26.8354 6.3761 26.5434 6.53613 26.2539L7.02539 25.3916L7.02637 25.3906C7.3782 24.7824 7.74367 24.1803 8.12305 23.5859C8.27103 23.3541 8.20428 23.0467 7.97363 22.8975C8.56775 21.9871 9.19338 21.0946 9.84766 20.2217C10.0394 20.3663 10.3019 20.3522 10.4766 20.2002L10.5459 20.126C11.1869 19.288 11.8548 18.4688 12.5479 17.6709L13.25 16.8809C13.4347 16.6769 13.4195 16.3614 13.2168 16.1758C13.9559 15.3752 14.7195 14.5972 15.5068 13.8457C15.6957 14.0462 16.0107 14.0565 16.2119 13.8682C17.2422 12.9037 18.3109 11.9833 19.4131 11.1123C19.6289 10.9418 19.666 10.6297 19.4971 10.4131C20.3608 9.7444 21.2444 9.10575 22.1455 8.49902C22.279 8.69865 22.5312 8.77163 22.7461 8.68555L22.8359 8.63867C23.4249 8.25087 24.0211 7.87688 24.624 7.51758H24.625L25.8936 6.76367C26.1314 6.62387 26.2107 6.31807 26.0713 6.08008C26.7741 5.67238 27.2914 5.38974 27.7861 5.13965C27.9071 5.38464 28.2021 5.48736 28.4492 5.36914C28.8415 5.18123 29.2537 4.99703 29.7744 4.76758L30.3428 4.5293C30.5659 4.43626 30.6864 4.20002 30.6416 3.97168L30.6123 3.875C30.6852 3.84453 30.7582 3.81225 30.832 3.78125L30.833 3.78418C30.9278 4.00633 31.1648 4.12448 31.3926 4.07812L31.4893 4.04785C31.6918 3.96152 31.8874 3.87595 32.0635 3.79785C32.5287 3.59897 33.0851 3.39103 33.7031 3.17969L34.3428 2.9668C34.6046 2.88237 34.7477 2.60278 34.665 2.34082C35.8647 1.96872 37.193 1.60992 38.4883 1.30957C38.5493 1.57749 38.8154 1.74601 39.084 1.68652C39.716 1.54636 40.3336 1.42202 40.917 1.31934L41.4883 1.22461L41.4951 1.22363C42.1281 1.11466 42.7825 1.02886 43.5469 0.961914L44.3516 0.901367C44.6251 0.883341 44.8313 0.648144 44.8164 0.375C46.0688 0.306715 47.6112 0.26767 49.6719 0.245117C49.6756 0.520258 49.9013 0.740872 50.1768 0.738281L53.1025 0.719727H55.1553C55.4314 0.719727 55.6553 0.495869 55.6553 0.219727H58.7637C58.7637 0.495718 58.9877 0.719483 59.2637 0.719727H63.373C63.6147 0.719682 63.8168 0.548259 63.8633 0.320312L63.873 0.219727H66.9814C66.9814 0.495757 67.2055 0.719546 67.4814 0.719727H71.5908C71.8324 0.719627 72.0335 0.548138 72.0801 0.320312L72.0908 0.219727H75.1992C75.1992 0.495796 75.4232 0.719609 75.6992 0.719727H79.8086C80.0501 0.719571 80.2513 0.548113 80.2979 0.320312L80.3086 0.219727H83.417C83.417 0.495835 83.6409 0.719671 83.917 0.719727H88.2246C88.5008 0.719727 88.7246 0.495869 88.7246 0.219727H92.2324C92.2324 0.495869 92.4563 0.719727 92.7324 0.719727H97.2393C97.5154 0.719727 97.7393 0.495869 97.7393 0.219727H101.246C101.246 0.495755 101.47 0.719542 101.746 0.719727H103.45C103.391 1.28705 103.315 1.83216 103.222 2.35547C103.174 2.62493 103.351 2.88198 103.619 2.93359C103.373 4.14858 103.038 5.24919 102.632 6.24805C102.413 6.15678 102.165 6.23204 102.032 6.41895L101.982 6.50684C101.43 7.75663 100.759 8.82952 100.01 9.75195L99.6836 10.1387C99.5039 10.3438 99.5231 10.653 99.7236 10.8359C98.8969 11.7147 97.9973 12.4441 97.0654 13.0508C96.9385 12.85 96.6918 12.7693 96.4756 12.8467L96.3848 12.8896C95.2444 13.5811 94.0608 14.0945 92.9111 14.4775L92.4209 14.6338C92.16 14.7133 92.0119 14.9868 92.0859 15.248C90.8467 15.594 89.6801 15.8024 88.6846 15.9336C88.6501 15.6624 88.4051 15.4687 88.1328 15.5C87.6441 15.5562 87.2071 15.5947 86.835 15.625L85.9189 15.7021C85.5944 15.7362 84.953 15.7622 84.0645 15.7812C83.7894 15.7871 83.571 16.0144 83.5752 16.2891C82.765 16.3027 81.8081 16.3102 80.7578 16.3145C80.7553 16.0398 80.5319 15.8186 80.2568 15.8193L76.4463 15.8164C76.1712 15.8154 75.947 16.0369 75.9443 16.3115C75.0091 16.3077 74.0627 16.3041 73.1299 16.2979C73.1311 16.0225 72.9103 15.798 72.6348 15.7959L68.8223 15.7637C68.5467 15.7612 68.3206 15.9823 68.3174 16.2578C67.2576 16.2473 66.3009 16.2367 65.5049 16.2275C65.5074 15.952 65.2874 15.7259 65.0117 15.7227C64.4197 15.7157 63.944 15.7102 63.6162 15.7061C63.4524 15.704 63.3252 15.7023 63.2393 15.7012C63.1964 15.7006 63.1636 15.7005 63.1416 15.7002C63.1306 15.7 63.1218 15.6993 63.1162 15.6992H63.0947L60.8945 15.7285C60.6529 15.7319 60.4535 15.9062 60.4102 16.1348L60.4014 16.2354C59.1985 16.2527 58.074 16.2702 57.0205 16.29C57.0147 16.0144 56.7874 15.7955 56.5117 15.8008C54.8897 15.8329 53.4385 15.8693 52.1318 15.9131C51.8561 15.9226 51.6402 16.1539 51.6494 16.4297V16.4316C50.3931 16.4769 49.275 16.5285 48.2676 16.5918L48.2686 16.5898C48.2496 16.3144 48.0108 16.106 47.7354 16.125C45.9884 16.2453 44.5733 16.4014 43.335 16.6113C43.0627 16.6575 42.8796 16.9162 42.9258 17.1885C42.9261 17.1901 42.9265 17.1917 42.9268 17.1934C41.729 17.4194 40.6976 17.7015 39.6631 18.0586C39.6625 18.0571 39.6627 18.0552 39.6621 18.0537C39.5672 17.7944 39.2798 17.661 39.0205 17.7559C38.6888 17.8772 38.3548 18.0059 38.0137 18.1426L36.9629 18.5771H36.9619C36.6408 18.7138 36.3226 18.8546 36.0078 18.999L35.0723 19.4443C34.825 19.5666 34.7237 19.8658 34.8457 20.1133C34.8463 20.1146 34.847 20.1159 34.8477 20.1172C33.9183 20.5916 33.0192 21.1012 32.1514 21.6465C32.1507 21.6454 32.1501 21.6437 32.1494 21.6426C32.0178 21.4402 31.7642 21.3643 31.5479 21.4492L31.458 21.4961C30.2863 22.2567 29.1709 23.0817 28.1143 23.9707C27.9031 24.1485 27.876 24.4645 28.0537 24.6758C28.0544 24.6766 28.0559 24.6769 28.0566 24.6777C27.2757 25.3554 26.5281 26.0691 25.8145 26.8184C25.8136 26.8176 25.8133 26.8162 25.8125 26.8154C25.6097 26.6281 25.2928 26.6409 25.1055 26.8438C24.1694 27.8571 23.293 28.9321 22.4775 30.0674C22.3165 30.2917 22.3675 30.6045 22.5918 30.7656C22.593 30.7665 22.5945 30.7668 22.5957 30.7676C22.0103 31.6082 21.4584 32.4819 20.9395 33.3877C20.9381 33.3869 20.9369 33.3855 20.9355 33.3848C20.7244 33.2677 20.4648 33.3197 20.3135 33.4961L20.2559 33.5801C19.9223 34.1812 19.6026 34.7958 19.2979 35.4238C19.034 35.9654 18.7937 36.4748 18.5742 36.9619C18.4608 37.2135 18.5728 37.5094 18.8242 37.623C18.8255 37.6236 18.8278 37.6234 18.8291 37.624C18.4924 38.3982 18.2132 39.119 17.9785 39.835C17.9759 39.8341 17.9734 39.8328 17.9707 39.832C17.7063 39.7526 17.4271 39.9026 17.3477 40.167C17.0285 41.23 16.8025 42.304 16.6348 43.5352C16.5975 43.8087 16.789 44.0602 17.0625 44.0977C17.0646 44.0979 17.0672 44.0974 17.0693 44.0977C16.9833 44.8163 16.9118 45.594 16.8535 46.459H16.8516C16.5762 46.4425 16.3391 46.6524 16.3223 46.9277C16.2902 47.4572 16.2621 48.0181 16.2354 48.6152C16.1997 49.3129 16.1851 50.0043 16.1914 50.6885C16.1942 50.9643 16.4194 51.186 16.6953 51.1836C16.6969 51.1836 16.6986 51.1826 16.7002 51.1826C16.7257 52.2231 16.8019 53.2474 16.9277 54.2578C16.9258 54.2581 16.9238 54.2585 16.9219 54.2588C16.6485 54.2975 16.4584 54.5508 16.4971 54.8242C16.692 56.2012 16.9801 57.5529 17.3623 58.8838C17.4385 59.1491 17.7151 59.3027 17.9805 59.2266C17.9825 59.226 17.9843 59.2242 17.9863 59.2236C18.285 60.2008 18.6355 61.1666 19.0391 62.123C19.0375 62.1237 19.0358 62.1243 19.0342 62.125C18.7815 62.2364 18.6669 62.5325 18.7783 62.7852C19.3257 64.0265 19.9607 65.2515 20.6836 66.4639C20.8251 66.7009 21.132 66.7781 21.3691 66.6367C21.3703 66.636 21.3709 66.6345 21.3721 66.6338C21.9002 67.4925 22.4733 68.3461 23.0928 69.1953C23.0919 69.196 23.0908 69.1966 23.0898 69.1973C22.8688 69.3625 22.8232 69.6753 22.9883 69.8965C23.3947 70.4402 23.8203 70.982 24.2637 71.5225V71.5234C24.6952 72.0486 25.1869 72.5818 25.7256 73.1143C25.922 73.3084 26.2395 73.3067 26.4336 73.1104C26.4349 73.109 26.4352 73.1068 26.4365 73.1055C27.1785 73.8116 28.0044 74.5178 28.8838 75.2041C28.8829 75.2053 28.8818 75.2068 28.8809 75.208C28.714 75.4279 28.7568 75.7412 28.9766 75.9082C30.0975 76.7599 31.2941 77.5747 32.5088 78.3135C32.7447 78.457 33.0528 78.3824 33.1963 78.1465C33.197 78.1454 33.1966 78.1437 33.1973 78.1426C34.1481 78.7046 35.1057 79.2166 36.042 79.6592C36.0413 79.6608 36.0408 79.6625 36.04 79.6641C35.9263 79.9157 36.0384 80.2125 36.29 80.3262C36.9711 80.6339 37.6413 80.9037 38.2891 81.1289C39.2051 81.4498 39.9721 81.709 40.667 81.918C40.9313 81.9974 41.2105 81.8473 41.29 81.583C41.2907 81.5809 41.2904 81.5783 41.291 81.5762C42.5986 81.9421 43.683 82.1236 45.1904 82.2383C45.1903 82.2396 45.1905 82.2409 45.1904 82.2422C45.1729 82.5178 45.3826 82.7559 45.6582 82.7734C46.0176 82.7963 46.4008 82.8162 46.8145 82.835L48.1533 82.8887C48.8765 82.914 49.5039 82.9332 50.0596 82.9443C50.3356 82.9498 50.5638 82.7301 50.5693 82.4541L50.5684 82.4512C51.7226 82.4647 52.5507 82.435 53.3594 82.3438C53.3597 82.3467 53.3599 82.3496 53.3604 82.3525C53.3948 82.5917 53.593 82.7666 53.8252 82.7803L53.9268 82.7764C54.5091 82.6925 55.1087 82.5769 55.8242 82.4248L55.8232 82.4238C56.4603 82.2897 57.0872 82.14 57.708 81.9717L58.3271 81.7969C58.5919 81.7192 58.7435 81.4416 58.666 81.1768C58.6656 81.1754 58.6645 81.1742 58.6641 81.1729C59.9383 80.7787 61.197 80.3009 62.4834 79.7266C62.4841 79.7282 62.4846 79.7299 62.4854 79.7314C62.6011 79.982 62.8978 80.0912 63.1484 79.9756C63.7142 79.7142 64.286 79.4345 64.8662 79.1348L65.4502 78.8281V78.8271C65.9586 78.5548 66.461 78.2651 66.9561 77.959C67.1909 77.8137 67.2644 77.5054 67.1191 77.2705C67.1179 77.2685 67.1165 77.2666 67.1152 77.2646C67.7879 76.8321 68.4474 76.3693 69.0908 75.877C69.092 75.8785 69.0935 75.8803 69.0947 75.8818C69.2446 76.071 69.5035 76.123 69.7109 76.0186L69.7969 75.9639C70.4721 75.4295 71.1292 74.864 71.7656 74.2705L72.3945 73.668C72.5913 73.4745 72.5945 73.1579 72.4014 72.9609C72.4001 72.9596 72.3978 72.9583 72.3965 72.957C72.96 72.3858 73.505 71.7918 74.0293 71.1768C74.0306 71.1779 74.0318 71.1795 74.0332 71.1807C74.2194 71.3346 74.4839 71.3304 74.665 71.1846L74.7373 71.1133C75.2878 70.4477 75.8147 69.7593 76.3154 69.0508L76.8076 68.3359C76.9612 68.1065 76.8994 67.7962 76.6699 67.6426C76.6687 67.6418 76.6672 67.6414 76.666 67.6406C77.1039 66.965 77.517 66.2725 77.9053 65.5664C77.9069 65.5673 77.9085 65.5685 77.9102 65.5693C78.1235 65.6824 78.3814 65.6256 78.5293 65.4463L78.5859 65.3623C78.7214 65.1069 78.8537 64.8496 78.9824 64.5908L79.3584 63.8096C79.664 63.1499 79.9475 62.4634 80.209 61.7617C80.3053 61.503 80.1737 61.2155 79.915 61.1191C79.9134 61.1185 79.9118 61.1178 79.9102 61.1172C80.2829 60.0662 80.6048 58.9822 80.873 57.8994C80.8749 57.8999 80.877 57.9009 80.8789 57.9014C81.1477 57.9638 81.4159 57.7962 81.4785 57.5273C81.7828 56.2208 82.0091 54.9216 82.1484 53.6875L82.2031 53.1631C82.2258 52.9226 82.0739 52.7056 81.8516 52.6377L81.752 52.6182C81.75 52.618 81.748 52.6183 81.7461 52.6182C81.8391 51.3849 81.8352 50.2441 81.7266 49.2627C81.7309 49.2621 81.7359 49.2634 81.7402 49.2627C82.0128 49.2196 82.199 48.964 82.1562 48.6914L82.0996 48.3662C81.9568 47.6207 81.7352 46.9627 81.4141 46.4492H81.415C81.3137 46.2844 81.1935 46.1145 81.0654 45.9482L80.9961 45.874C80.8201 45.722 80.5557 45.71 80.3643 45.8574C80.3595 45.8611 80.3552 45.8653 80.3506 45.8691C80.3239 45.8389 80.2984 45.8079 80.2715 45.7783C80.2759 45.774 80.2819 45.7711 80.2861 45.7666C80.4762 45.5664 80.4687 45.2498 80.2686 45.0596L80.0215 44.8389C79.9432 44.7733 79.8652 44.7138 79.79 44.6611H79.791C79.1458 44.1884 78.6372 43.8349 77.6387 43.6162L77.5381 43.6045C77.3055 43.6012 77.0947 43.7619 77.043 43.998C77.0417 44.0039 77.0411 44.0098 77.04 44.0156C76.2736 43.8996 75.2169 43.8345 73.6318 43.8047L73.6328 43.8037C73.6366 43.5276 73.4157 43.3007 73.1396 43.2969L71.1572 43.2842C70.4238 43.2833 69.6141 43.2852 68.7188 43.29C68.4427 43.2916 68.2202 43.5169 68.2217 43.793V43.7959C67.1955 43.8022 66.061 43.8082 64.8047 43.8193Z" stroke="white" stroke-opacity="0.56" stroke-linecap="round" stroke-dasharray="4 4"/>
</svg>
