<svg width="13" height="14" viewBox="0 0 13 14" fill="none" xmlns="http://www.w3.org/2000/svg">
<path d="M7.64583 2.06358C7.82076 2.07581 7.97658 2.20786 8.021 2.38151L8.33143 3.59536C8.55807 4.48156 9.26195 5.21045 10.1397 5.46789L11.342 5.8205C11.514 5.87095 11.6405 6.03128 11.6466 6.20653C11.6528 6.38177 11.5368 6.52515 11.3675 6.55173L10.184 6.73751C9.32001 6.87315 8.66372 7.50692 8.49801 8.36568L8.27105 9.54196C8.23857 9.71027 8.09123 9.82109 7.91631 9.80886C7.74138 9.79663 7.58556 9.6646 7.54113 9.49092L7.23071 8.27706C7.00407 7.39087 6.30019 6.66198 5.42245 6.40455L4.22015 6.05194C4.04816 6.00149 3.92163 5.84116 3.91551 5.66591C3.90939 5.49067 4.02532 5.34729 4.19462 5.32071L5.37812 5.13493C6.24213 4.99929 6.89842 4.3655 7.06413 3.50674L7.29109 2.33047C7.32357 2.1622 7.47091 2.05135 7.64583 2.06358Z" fill="white"/>
<path d="M3.82991 6.78148C4.00484 6.79371 4.16065 6.92574 4.20507 7.09942L4.42681 7.96647C4.57822 8.55848 5.04845 9.04543 5.6348 9.21738L6.49359 9.46924C6.66562 9.5197 6.79212 9.68004 6.79824 9.85528C6.80436 10.0305 6.68846 10.1739 6.51912 10.2005L5.67377 10.3332C5.09658 10.4238 4.65814 10.8472 4.54744 11.4209L4.38532 12.2611C4.35285 12.4294 4.20551 12.5402 4.03058 12.528C3.85566 12.5157 3.69984 12.3837 3.65543 12.21L3.43369 11.343C3.28227 10.751 2.81204 10.264 2.22566 10.0921L1.3669 9.84022C1.1949 9.78976 1.06837 9.62942 1.06225 9.45418C1.05613 9.27894 1.17206 9.13556 1.34136 9.10896L2.1867 8.97626C2.76391 8.88568 3.20235 8.46227 3.31306 7.88859L3.47518 7.04839C3.50765 6.88008 3.65498 6.76925 3.82991 6.78148Z" fill="white"/>
</svg>
