<svg width="84" height="80" viewBox="0 0 84 80" fill="none" xmlns="http://www.w3.org/2000/svg">
<g filter="url(#filter0_i_110_2041)">
<path d="M25.7345 2.5226C27.5544 1.7433 30.9668 0.802854 33.4468 0.412729C35.3126 0.0913949 37.3835 0.0226159 42.8892 0H69.4385H84C82.958 12.6093 71.5487 12.6913 69.4385 12.9127C67.3284 13.1342 50.9666 12.9127 50.9666 12.9127C36.3593 13.0965 34.4485 13.3255 30.0119 15.2064C23.7095 17.8901 18.9536 22.4312 15.9504 28.6242C14.1529 32.3162 13.7438 34.0369 13.5163 39.1283C13.1746 45.8255 15.2454 51.6745 19.9095 57.3624C22.3211 60.2987 27.2361 63.6704 31.0586 65C34.2659 66.1242 35.1085 66.2618 38.9076 66.3994C42.1842 66.5143 42.9575 66.4681 45.005 66.0328C47.6216 65.4815 50.0107 64.5873 52.6733 63.1653C57.3374 60.6653 61.3639 56.3079 63.7306 51.2156C65.9606 46.3994 66.7798 39.7475 65.4139 37.5688C65.118 37.0873 64.5722 36.4908 64.208 36.2382C62.7064 35.1376 62.5248 35.1376 50.1474 35.2525L38.5209 35.3901L37.5651 36.0319C37.0417 36.3758 36.3143 37.156 35.9267 37.729C35.0626 39.1283 35.0626 40.2752 35.9043 41.9497C36.4051 42.9815 36.7234 43.3029 37.7476 43.807L38.9984 44.4497H47.9399H56.8824V45C56.8824 45.6191 55.744 48.2115 54.8574 49.6099C51.2849 55.2752 44.4816 58.5554 37.9751 57.7525C33.5835 57.2248 30.0802 55.5277 27.1219 52.5C24.3461 49.6787 22.7312 46.4908 22.162 42.7299C21.1837 36.3758 23.6411 29.8624 28.4185 26.0319C30.7852 24.1745 32.4235 23.3029 35.0626 22.5226L37.2009 21.8809L49.7149 21.9497C56.9957 21.9723 62.8431 22.0873 63.7081 22.2474C65.6189 22.5462 68.1672 23.3029 69.168 23.8758C71.2163 25.0226 72.058 25.5503 72.5813 26.0319C72.8996 26.3306 73.1954 26.5596 73.2863 26.5596C73.5372 26.5596 75.0154 28.0503 75.5387 28.8532C75.8346 29.2885 76.1529 29.7022 76.2212 29.771C76.9037 30.3901 78.7246 34.9774 79.1112 36.9958C79.7254 40.2987 79.0654 47.7064 77.7912 51.7207C75.2888 59.656 70.033 67.271 63.9356 71.8357C56.5865 77.3172 48.6917 80 39.9317 80C33.2193 80 27.6911 78.7156 22.0712 75.8717C12.4237 70.9866 5.30216 62.7299 2.09478 52.7064C1.02471 49.3347 0.797219 48.3717 0.342232 45.1376C-0.817705 36.7659 1.00224 27.5688 5.32556 20.1376C8.76043 14.1971 13.8346 9.03694 19.682 5.55032C21.9804 4.17452 22.4353 3.94458 23.8911 3.30286C24.3236 3.1191 25.1653 2.77515 25.7345 2.5226Z" fill="#EAEAEA"/>
</g>
<defs>
<filter id="filter0_i_110_2041" x="0" y="0" width="84" height="84" filterUnits="userSpaceOnUse" color-interpolation-filters="sRGB">
<feFlood flood-opacity="0" result="BackgroundImageFix"/>
<feBlend mode="normal" in="SourceGraphic" in2="BackgroundImageFix" result="shape"/>
<feColorMatrix in="SourceAlpha" type="matrix" values="0 0 0 0 0 0 0 0 0 0 0 0 0 0 0 0 0 0 127 0" result="hardAlpha"/>
<feOffset dy="4"/>
<feGaussianBlur stdDeviation="2"/>
<feComposite in2="hardAlpha" operator="arithmetic" k2="-1" k3="1"/>
<feColorMatrix type="matrix" values="0 0 0 0 0.882353 0 0 0 0 0.882353 0 0 0 0 0.882353 0 0 0 1 0"/>
<feBlend mode="normal" in2="shape" result="effect1_innerShadow_110_2041"/>
</filter>
</defs>
</svg>
