<svg width="32" height="30" viewBox="0 0 32 30" fill="none" xmlns="http://www.w3.org/2000/svg">
<path d="M9.8036 0.945976C10.4969 0.653736 11.7969 0.30107 12.7416 0.154773C13.4524 0.0342731 14.2413 0.00848097 16.3387 0H26.4528H32C31.6031 4.72849 27.2566 4.75923 26.4528 4.84227C25.6489 4.92532 19.4158 4.84227 19.4158 4.84227C13.8511 4.91118 13.1232 4.99705 11.4331 5.70239C9.03219 6.70879 7.22044 8.4117 6.07633 10.7341C5.39157 12.1186 5.23572 12.7639 5.14906 14.6731C5.01888 17.1846 5.80778 19.3779 7.58457 21.5109C8.50328 22.612 10.3757 23.8764 11.8318 24.375C13.0537 24.7966 13.3747 24.8482 14.8219 24.8998C16.0702 24.9429 16.3648 24.9256 17.1447 24.7623C18.1416 24.5556 19.0517 24.2202 20.066 23.687C21.8428 22.7495 23.3767 21.1155 24.2783 19.2058C25.1278 17.3998 25.4399 14.9053 24.9196 14.0883C24.8069 13.9077 24.5989 13.684 24.4602 13.5893C23.8881 13.1766 23.819 13.1766 19.1038 13.2197L14.6746 13.2713L14.3105 13.5119C14.1111 13.6409 13.834 13.9335 13.6864 14.1484C13.3572 14.6731 13.3572 15.1032 13.6778 15.7311C13.8686 16.1181 13.9899 16.2386 14.38 16.4276L14.8565 16.6686H18.2628H21.6695V16.875C21.6695 17.1072 21.2358 18.0793 20.8981 18.6037C19.5371 20.7282 16.9454 21.9583 14.4667 21.6572C12.7937 21.4593 11.4591 20.8229 10.3321 19.6875C9.2747 18.6295 8.6595 17.434 8.44266 16.0237C8.06996 13.6409 9.00615 11.1984 10.8261 9.76194C11.7277 9.06544 12.3518 8.73857 13.3572 8.44598L14.1718 8.20533L18.939 8.23113C21.7126 8.23961 23.9402 8.28272 24.2698 8.34279C24.9977 8.45481 25.9685 8.73857 26.3497 8.95342C27.13 9.38348 27.4507 9.58137 27.65 9.76194C27.7713 9.87396 27.884 9.95983 27.9186 9.95983C28.0142 9.95983 28.5773 10.5189 28.7767 10.8199C28.8894 10.9832 29.0106 11.1383 29.0367 11.1641C29.2966 11.3963 29.9903 13.1165 30.1376 13.8734C30.3716 15.112 30.1201 17.8899 29.6347 19.3953C28.6814 22.371 26.6792 25.2266 24.3564 26.9384C21.5568 28.9939 18.5492 30 15.2121 30C12.655 30 10.549 29.5184 8.40806 28.4519C4.73286 26.62 2.01987 23.5237 0.79801 19.7649C0.390367 18.5005 0.303703 18.1394 0.130374 16.9266C-0.311507 13.7872 0.381807 10.3383 2.02878 7.55159C3.33731 5.32392 5.27032 3.38885 7.49791 2.08137C8.37347 1.56544 8.5468 1.47922 9.10138 1.23857C9.26614 1.16966 9.58677 1.04068 9.8036 0.945976Z" fill="#FFC0DF"/>
</svg>
