<svg width="163" height="137" viewBox="0 0 163 137" fill="none" xmlns="http://www.w3.org/2000/svg">
<mask id="path-1-inside-1_4_2" fill="white">
<path d="M107.701 0C124.837 12.5344 138.775 28.9338 148.384 47.8662C157.992 66.7988 163 87.7307 163 108.962H56C56 124.426 43.464 136.962 28 136.962C12.536 136.962 0 124.426 0 108.962C0 93.4979 12.536 80.9619 28 80.9619C34.1834 80.9619 39.8974 82.9679 44.5303 86.3623L107.701 0Z"/>
</mask>
<path d="M107.701 0C124.837 12.5344 138.775 28.9338 148.384 47.8662C157.992 66.7988 163 87.7307 163 108.962H56C56 124.426 43.464 136.962 28 136.962C12.536 136.962 0 124.426 0 108.962C0 93.4979 12.536 80.9619 28 80.9619C34.1834 80.9619 39.8974 82.9679 44.5303 86.3623L107.701 0Z" fill="#FB439D" fill-opacity="0.11"/>
<path d="M107.701 0L108.292 -0.807126L107.484 -1.3975L106.894 -0.590382L107.701 0ZM148.384 47.8662L149.276 47.4136L149.276 47.4136L148.384 47.8662ZM163 108.962V109.962H164V108.962H163ZM56 108.962V107.962H55V108.962H56ZM44.5303 86.3623L43.9393 87.169L44.7465 87.7605L45.3374 86.9527L44.5303 86.3623ZM107.701 0L107.111 0.807126C124.12 13.2487 137.955 29.5266 147.492 48.3188L148.384 47.8662L149.276 47.4136C139.596 28.341 125.555 11.8201 108.292 -0.807126L107.701 0ZM148.384 47.8662L147.492 48.3188C157.029 67.1112 162 87.8879 162 108.962H163H164C164 87.5734 158.955 66.4865 149.276 47.4136L148.384 47.8662ZM163 108.962V107.962H56V108.962V109.962H163V108.962ZM56 108.962H55C55 123.874 42.9117 135.962 28 135.962V136.962V137.962C44.0163 137.962 57 124.978 57 108.962H56ZM28 136.962V135.962C13.0883 135.962 1 123.874 1 108.962H0H-1C-1 124.978 11.9837 137.962 28 137.962V136.962ZM0 108.962H1C1 94.0502 13.0883 81.9619 28 81.9619V80.9619V79.9619C11.9837 79.9619 -1 92.9457 -1 108.962H0ZM28 80.9619V81.9619C33.9635 81.9619 39.4719 83.8958 43.9393 87.169L44.5303 86.3623L45.1213 85.5556C40.323 82.04 34.4032 79.9619 28 79.9619V80.9619ZM44.5303 86.3623L45.3374 86.9527L108.508 0.590382L107.701 0L106.894 -0.590382L43.7231 85.7719L44.5303 86.3623Z" fill="#FB439D" fill-opacity="0.12" mask="url(#path-1-inside-1_4_2)"/>
</svg>
