<svg width="34" height="35" viewBox="0 0 34 35" fill="none" xmlns="http://www.w3.org/2000/svg">
<g clip-path="url(#clip0_136_2690)">
<path d="M8.30848 21.0177C8.37267 22.8559 6.94156 24.2379 5.10667 24.1096C3.27178 23.9813 1.73691 22.3919 1.67272 20.5536C1.60852 18.7154 3.03963 17.3334 4.87452 17.4617L8.1924 17.6937L8.30848 21.0177ZM9.96742 21.1337C9.90323 19.2954 11.3343 17.9134 13.1692 18.0417C15.0041 18.17 16.539 19.7594 16.6032 21.5977L16.8934 29.9076C16.9576 31.7458 15.5265 33.1278 13.6916 32.9995C11.8567 32.8712 10.3218 31.2818 10.2576 29.4436L9.96742 21.1337Z" fill="white" fill-opacity="0.64"/>
<path d="M12.8201 8.01944C10.9852 7.89114 9.45031 6.30173 9.38611 4.46348C9.32192 2.62523 10.753 1.24322 12.5879 1.37153C14.4228 1.49984 15.9577 3.08925 16.0219 4.9275L16.138 8.25145L12.8201 8.01944ZM12.879 9.70661C14.7139 9.83491 16.2488 11.4243 16.3129 13.2626C16.3771 15.1008 14.946 16.4828 13.1111 16.3545L4.7913 15.7727C2.95641 15.6444 1.42153 14.055 1.35734 12.2168C1.29314 10.3785 2.72426 8.99652 4.55915 9.12483L12.879 9.70661Z" fill="white"/>
<path d="M26.2917 13.9604C26.2275 12.1221 27.6586 10.7401 29.4935 10.8684C31.3284 10.9967 32.8633 12.5861 32.9275 14.4244C32.9916 16.2626 31.5605 17.6446 29.7256 17.5163L26.4078 17.2843L26.2917 13.9604ZM24.6328 13.8444C24.6969 15.6826 23.2658 17.0646 21.4309 16.9363C19.5961 16.808 18.0612 15.2186 17.997 13.3803L17.7059 5.04527C17.6417 3.20702 19.0728 1.82501 20.9077 1.95332C22.7426 2.08163 24.2775 3.67104 24.3417 5.50929L24.6328 13.8444Z" fill="white" fill-opacity="0.64"/>
<path d="M21.7799 26.9334C23.6148 27.0617 25.1497 28.6511 25.2139 30.4894C25.2781 32.3276 23.847 33.7096 22.0121 33.5813C20.1772 33.453 18.6423 31.8636 18.5781 30.0253L18.4621 26.7014L21.7799 26.9334ZM21.7219 25.2714C19.887 25.1431 18.3521 23.5537 18.288 21.7154C18.2238 19.8772 19.6549 18.4952 21.4898 18.6235L29.8096 19.2053C31.6445 19.3336 33.1794 20.923 33.2436 22.7612C33.3077 24.5995 31.8766 25.9815 30.0417 25.8532L21.7219 25.2714Z" fill="white" fill-opacity="0.88"/>
</g>
<defs>
<clipPath id="clip0_136_2690">
<rect width="32" height="32" fill="white" transform="matrix(0.997564 0.0697565 0.0348995 0.999391 0.768555 0.394348)"/>
</clipPath>
</defs>
</svg>
