<svg width="402" height="466" viewBox="0 0 402 466" fill="none" xmlns="http://www.w3.org/2000/svg">
<path d="M70.3678 112.456C77.6622 105.643 92.2324 95.3217 103.324 89.2031C111.622 84.4686 121.324 80.5701 147.396 70.9603L273.302 25.1341L342.358 -0.000145986C359.039 61.2065 305.073 81.2861 295.445 85.9717C285.818 90.6573 207.845 117.856 207.845 117.856C138.887 143.935 130.218 148.312 112.403 164.831C87.1172 188.354 72.3505 217.958 68.7278 252.32C66.5347 272.818 67.5453 281.631 75.1973 306.011C85.0612 338.154 104.912 362.137 136.784 380.885C153.256 390.556 182.347 397.958 202.754 397.625C219.893 397.385 224.124 396.579 242.377 390.67C258.113 385.556 261.701 384.003 270.664 378.418C282.128 371.304 291.925 362.967 302.113 351.672C319.945 331.843 331.568 304.363 334.059 276.286C336.375 249.745 328.853 216.991 318.64 209.084C316.411 207.326 312.8 205.458 310.64 204.897C301.631 202.303 300.769 202.617 242.269 224.522L187.368 245.239L183.935 249.912C182.043 252.436 179.932 257.368 179.076 260.736C177.378 268.821 179.344 274.224 186.207 280.66C190.352 284.657 192.412 285.622 198.134 286.229L205.168 287.098L247.571 271.665L289.98 256.229L290.924 258.822C291.985 261.739 291.032 275.918 289.226 284.037C281.999 316.895 255.36 344.092 223.127 351.54C201.395 356.634 181.872 354.685 162.65 345.527C144.648 337.025 131.523 324.793 122.374 308.057C106.839 279.808 107.324 244.879 123.411 218.585C131.449 205.75 137.724 198.815 148.902 190.584L157.942 183.869L217.406 162.593C251.972 150.133 279.9 140.581 284.277 139.843C293.851 137.952 307.233 137.119 312.962 138.091C324.643 139.958 329.539 140.992 332.846 142.357C334.868 143.215 336.664 143.783 337.094 143.627C338.284 143.193 347.851 147.665 351.71 150.545C353.859 152.085 356.078 153.485 356.52 153.691C360.818 155.43 377.32 173.9 382.615 182.742C391.191 197.243 400.764 233.283 401.605 254.396C403.346 296.102 391.479 341.052 370.391 373.082C344.939 411.593 312.099 437.861 270.557 452.981C238.724 464.567 210.305 468.058 178.776 464.359C124.648 457.996 76.7157 431.387 44.3165 389.698C33.46 375.659 30.7297 371.515 23.0261 357.063C3.16933 319.622 -3.97132 273.149 3.78814 230.675C9.8907 196.758 25.1053 163.688 46.8569 137.168C55.3972 126.719 57.1606 124.85 62.9639 119.314C64.7 117.701 68.1015 114.628 70.3678 112.456Z" fill="url(#paint0_linear_66_109)"/>
<defs>
<linearGradient id="paint0_linear_66_109" x1="143.179" y1="72.495" x2="212" y2="456" gradientUnits="userSpaceOnUse">
<stop stop-color="#ECECEC" stop-opacity="0.4" />
<stop offset="1" stop-color="#F1F1F1" stop-opacity="0.2"/>
</linearGradient>
</defs>
</svg>
