<svg width="30" height="30" viewBox="0 0 30 30" fill="none" xmlns="http://www.w3.org/2000/svg">
<path d="M26.25 18.75C26.25 19.413 25.9866 20.0489 25.5178 20.5178C25.0489 20.9866 24.413 21.25 23.75 21.25H8.75L3.75 26.25V6.25C3.75 5.58696 4.01339 4.95107 4.48223 4.48223C4.95107 4.01339 5.58696 3.75 6.25 3.75H23.75C24.413 3.75 25.0489 4.01339 25.5178 4.48223C25.9866 4.95107 26.25 5.58696 26.25 6.25V18.75Z" stroke="#FF58AE" stroke-width="2" stroke-linecap="round" stroke-linejoin="round"/>
<path d="M18.5 9.375C18.0688 8.94449 17.4843 8.70269 16.875 8.70269C16.2657 8.70269 15.6812 8.94449 15.25 9.375L15 9.75L14.625 9.375C14.3952 9.17802 14.1288 9.02823 13.8411 8.93419C13.5534 8.84014 13.25 8.80369 12.9482 8.8269C12.6464 8.85012 12.3522 8.93255 12.0822 9.06948C11.8123 9.20642 11.572 9.39519 11.375 9.625C11.178 9.85481 11.0282 10.1212 10.9342 10.4089C10.8401 10.6966 10.8037 11 10.8269 11.3018C10.8501 11.6036 10.9325 11.8978 11.0695 12.1678C11.2064 12.4377 11.3952 12.678 11.625 12.875L15 16.25L18.375 12.875C19.5 11.75 19.375 10.25 18.5 9.375Z" stroke="#FF58AE" stroke-width="2" stroke-linecap="round" stroke-linejoin="round"/>
</svg>
