<svg width="36" height="36" viewBox="0 0 36 36" fill="none" xmlns="http://www.w3.org/2000/svg">
<g clip-path="url(#clip0_646_6738)">
<g filter="url(#filter0_d_646_6738)">
<rect x="1" y="1" width="29.6405" height="29.6386" rx="6.974" fill="url(#paint0_linear_646_6738)"/>
<rect x="1" y="1" width="29.6405" height="29.6386" rx="6.974" fill="#F670B7"/>
<rect x="1" y="1" width="29.6405" height="29.6386" rx="6.974" fill="#DBBFFF"/>
</g>
<path d="M7.64777 16.9248V16.8955C7.70636 16.9541 8.14581 17.2764 9.52277 16.8076C9.84503 16.7197 10.1673 16.5732 10.4896 16.4268C10.0794 16.0752 9.66925 15.6943 9.25909 15.3135C8.87823 14.9033 8.49738 14.4932 8.14581 14.083C7.99933 14.4053 7.85284 14.7275 7.76495 15.0498C7.2962 16.4268 7.61847 16.8662 7.64777 16.9248ZM9.2005 12.3545C9.61066 12.9111 10.0794 13.4385 10.6068 13.9658C11.1341 14.4932 11.6614 14.9619 12.2181 15.3721C12.7454 14.9619 13.2728 14.4932 13.8001 13.9658C14.3568 13.4385 14.7962 12.9111 15.2064 12.3545C14.7962 11.8271 14.3568 11.2998 13.8001 10.7725C13.2728 10.2158 12.7454 9.77637 12.2181 9.36621C11.6614 9.77637 11.1341 10.2158 10.6068 10.7725C10.0794 11.2998 9.61066 11.8271 9.2005 12.3545ZM10.4896 8.31152C10.1673 8.16504 9.84503 8.01855 9.55206 7.93066C8.14581 7.46191 7.70636 7.78418 7.67706 7.81348C7.61847 7.87207 7.2962 8.31152 7.76495 9.68848C7.85284 10.0107 7.99933 10.333 8.14581 10.6553C8.49738 10.2451 8.87823 9.83496 9.25909 9.4248C9.66925 9.04395 10.0794 8.66309 10.4896 8.31152ZM12.2181 7.11035C14.6204 5.6748 16.9349 5.35254 18.0775 6.49512C19.22 7.6377 18.8978 9.95215 17.4622 12.3545C18.8978 14.7861 19.22 17.1006 18.0775 18.2432C16.9349 19.3857 14.6204 19.0635 12.2181 17.6279C9.78644 19.0635 7.47198 19.3857 6.32941 18.2432C5.18683 17.1006 5.50909 14.7861 6.94464 12.3545C5.50909 9.95215 5.18683 7.6377 6.32941 6.49512C7.47198 5.35254 9.78644 5.6748 12.2181 7.11035ZM13.9173 8.31152C14.3275 8.66309 14.7376 9.04395 15.1478 9.4248C15.5286 9.83496 15.9095 10.2451 16.261 10.6553C16.4075 10.333 16.554 10.0107 16.6419 9.68848C17.1107 8.31152 16.7884 7.87207 16.7591 7.81348C16.7005 7.78418 16.261 7.46191 14.8841 7.93066C14.5618 8.01855 14.2396 8.16504 13.9173 8.31152ZM16.261 14.083C15.9095 14.4932 15.5286 14.9033 15.1478 15.3135C14.7376 15.6943 14.3275 16.0752 13.9173 16.4268C14.2396 16.5732 14.5618 16.7197 14.8841 16.8076C16.261 17.2764 16.7005 16.9541 16.7591 16.9248C16.7884 16.8662 17.1107 16.4268 16.6419 15.0498C16.554 14.7275 16.4075 14.4053 16.261 14.083ZM13.1556 12.3545C13.1556 12.8818 12.7161 13.292 12.2181 13.292C11.6907 13.292 11.2806 12.8818 11.2806 12.3545C11.2806 11.8564 11.6907 11.417 12.2181 11.417C12.7161 11.417 13.1556 11.8564 13.1556 12.3545Z" fill="#453E9F"/>
<rect x="18.7437" y="20.0547" width="14.8202" height="13.9476" rx="2.61525" fill="#1B1191"/>
<path d="M22.243 27.3506C22.243 26.999 22.4188 26.6826 22.7352 26.5068C23.034 26.3311 23.4031 26.3311 23.7195 26.5068C24.0184 26.6826 24.2117 26.999 24.2117 27.3506C24.2117 27.7197 24.0184 28.0361 23.7195 28.2119C23.4031 28.3877 23.034 28.3877 22.7352 28.2119C22.4188 28.0361 22.243 27.7197 22.243 27.3506ZM25.0555 27.3506C25.0555 26.999 25.2313 26.6826 25.5477 26.5068C25.8465 26.3311 26.2156 26.3311 26.532 26.5068C26.8309 26.6826 27.0242 26.999 27.0242 27.3506C27.0242 27.7197 26.8309 28.0361 26.532 28.2119C26.2156 28.3877 25.8465 28.3877 25.5477 28.2119C25.2313 28.0361 25.0555 27.7197 25.0555 27.3506ZM28.8524 26.3662C29.2039 26.3662 29.5203 26.5596 29.6961 26.8584C29.8719 27.1748 29.8719 27.5439 29.6961 27.8428C29.5203 28.1592 29.2039 28.335 28.8524 28.335C28.4832 28.335 28.1668 28.1592 27.991 27.8428C27.8152 27.5439 27.8152 27.1748 27.991 26.8584C28.1668 26.5596 28.4832 26.3662 28.8524 26.3662Z" fill="white"/>
</g>
<defs>
<filter id="filter0_d_646_6738" x="-0.743501" y="0.12825" width="33.1275" height="33.1257" filterUnits="userSpaceOnUse" color-interpolation-filters="sRGB">
<feFlood flood-opacity="0" result="BackgroundImageFix"/>
<feColorMatrix in="SourceAlpha" type="matrix" values="0 0 0 0 0 0 0 0 0 0 0 0 0 0 0 0 0 0 127 0" result="hardAlpha"/>
<feOffset dy="0.87175"/>
<feGaussianBlur stdDeviation="0.87175"/>
<feComposite in2="hardAlpha" operator="out"/>
<feColorMatrix type="matrix" values="0 0 0 0 0.354069 0 0 0 0 0 0 0 0 0 0.197533 0 0 0 0.15 0"/>
<feBlend mode="normal" in2="BackgroundImageFix" result="effect1_dropShadow_646_6738"/>
<feBlend mode="normal" in="SourceGraphic" in2="effect1_dropShadow_646_6738" result="shape"/>
</filter>
<linearGradient id="paint0_linear_646_6738" x1="19.7432" y1="3.17931" x2="12.334" y2="30.6388" gradientUnits="userSpaceOnUse">
<stop stop-color="#FF82C4"/>
<stop offset="1" stop-color="#F55AAC"/>
</linearGradient>
<clipPath id="clip0_646_6738">
<rect width="36" height="36" fill="white"/>
</clipPath>
</defs>
</svg>
