<svg width="36" height="36" viewBox="0 0 36 36" fill="none" xmlns="http://www.w3.org/2000/svg">
<g clip-path="url(#clip0_617_6237)">
<rect x="14.3158" y="26.6318" width="6.56841" height="4.9263" fill="#9E89EB"/>
<rect x="14.3158" y="26.6318" width="6.56841" height="4.9263" fill="#1B1191" fill-opacity="0.4"/>
<path fill-rule="evenodd" clip-rule="evenodd" d="M33.1999 24.166H2V24.9871C2 26.3474 3.10279 27.4502 4.46315 27.4502H30.7368C32.0971 27.4502 33.1999 26.3474 33.1999 24.9871V24.166ZM9.38941 31.5576C8.93596 31.5576 8.56836 31.9252 8.56836 32.3786C8.56836 32.8321 8.93596 33.1997 9.38941 33.1997H25.8104C26.2639 33.1997 26.6315 32.8321 26.6315 32.3786C26.6315 31.9252 26.2639 31.5576 25.8104 31.5576H9.38941Z" fill="#9E89EB"/>
<g filter="url(#filter0_d_617_6237)">
<path d="M2 24.1689H33.1999V9.39003C33.1999 7.57622 31.7295 6.10583 29.9157 6.10583H5.2842C3.47038 6.10583 2 7.57622 2 9.39003V24.1689Z" fill="#DBBFFF"/>
</g>
<path fill-rule="evenodd" clip-rule="evenodd" d="M10.2106 11.0322H13.4948V20.8848H10.2106V11.0322ZM5.28439 15.9589H8.5686V20.8852H5.28439V15.9589ZM18.4213 12.675H15.137V20.8855H18.4213V12.675Z" fill="#1B1191"/>
<g filter="url(#filter1_d_617_6237)">
<rect x="21.7053" y="2" width="13.1368" height="13.1368" rx="3.2842" fill="#C0ED54"/>
<rect x="21.7053" y="2" width="13.1368" height="13.1368" rx="3.2842" fill="#1B1191"/>
</g>
<path d="M30.6685 7.71289C30.6685 8.43164 30.4341 9.10352 30.0435 9.63477L32.0122 11.6191C32.2153 11.8066 32.2153 12.1348 32.0122 12.3223C31.8247 12.5254 31.4966 12.5254 31.3091 12.3223L29.3247 10.3379C28.7935 10.7441 28.1216 10.9629 27.4185 10.9629C25.6216 10.9629 24.1685 9.50977 24.1685 7.71289C24.1685 5.93164 25.6216 4.46289 27.4185 4.46289C29.1997 4.46289 30.6685 5.93164 30.6685 7.71289ZM27.4185 9.96289C28.2153 9.96289 28.9497 9.54102 29.356 8.83789C29.7622 8.15039 29.7622 7.29102 29.356 6.58789C28.9497 5.90039 28.2153 5.46289 27.4185 5.46289C26.606 5.46289 25.8716 5.90039 25.4653 6.58789C25.0591 7.29102 25.0591 8.15039 25.4653 8.83789C25.8716 9.54102 26.606 9.96289 27.4185 9.96289Z" fill="white"/>
</g>
<defs>
<filter id="filter0_d_617_6237" x="0.357898" y="5.28442" width="34.4841" height="21.3477" filterUnits="userSpaceOnUse" color-interpolation-filters="sRGB">
<feFlood flood-opacity="0" result="BackgroundImageFix"/>
<feColorMatrix in="SourceAlpha" type="matrix" values="0 0 0 0 0 0 0 0 0 0 0 0 0 0 0 0 0 0 127 0" result="hardAlpha"/>
<feOffset dy="0.821051"/>
<feGaussianBlur stdDeviation="0.821051"/>
<feComposite in2="hardAlpha" operator="out"/>
<feColorMatrix type="matrix" values="0 0 0 0 0.354069 0 0 0 0 0 0 0 0 0 0.197533 0 0 0 0.15 0"/>
<feBlend mode="normal" in2="BackgroundImageFix" result="effect1_dropShadow_617_6237"/>
<feBlend mode="normal" in="SourceGraphic" in2="effect1_dropShadow_617_6237" result="shape"/>
</filter>
<filter id="filter1_d_617_6237" x="20.0632" y="1.17895" width="16.421" height="16.4209" filterUnits="userSpaceOnUse" color-interpolation-filters="sRGB">
<feFlood flood-opacity="0" result="BackgroundImageFix"/>
<feColorMatrix in="SourceAlpha" type="matrix" values="0 0 0 0 0 0 0 0 0 0 0 0 0 0 0 0 0 0 127 0" result="hardAlpha"/>
<feOffset dy="0.821051"/>
<feGaussianBlur stdDeviation="0.821051"/>
<feComposite in2="hardAlpha" operator="out"/>
<feColorMatrix type="matrix" values="0 0 0 0 0.354069 0 0 0 0 0 0 0 0 0 0.197533 0 0 0 0.15 0"/>
<feBlend mode="normal" in2="BackgroundImageFix" result="effect1_dropShadow_617_6237"/>
<feBlend mode="normal" in="SourceGraphic" in2="effect1_dropShadow_617_6237" result="shape"/>
</filter>
<clipPath id="clip0_617_6237">
<rect width="36" height="36" fill="white"/>
</clipPath>
</defs>
</svg>
