<svg width="36" height="36" viewBox="0 0 36 36" fill="none" xmlns="http://www.w3.org/2000/svg">
<path d="M26.026 3H9.974C6.12237 3 3 6.12237 3 9.974V26.0241C3 29.8757 6.12237 32.9981 9.974 32.9981H26.026C29.8776 32.9981 33 29.8757 33 26.0241V9.974C33 6.12237 29.8776 3 26.026 3Z" fill="url(#paint0_linear_1033_1234)"/>
<path d="M26.026 3H9.974C6.12237 3 3 6.12237 3 9.974V26.0241C3 29.8757 6.12237 32.9981 9.974 32.9981H26.026C29.8776 32.9981 33 29.8757 33 26.0241V9.974C33 6.12237 29.8776 3 26.026 3Z" fill="#CCD6DB"/>
<path d="M26.026 3H9.974C6.12237 3 3 6.12237 3 9.974V26.0241C3 29.8757 6.12237 32.9981 9.974 32.9981H26.026C29.8776 32.9981 33 29.8757 33 26.0241V9.974C33 6.12237 29.8776 3 26.026 3Z" fill="#CCD6DB"/>
<path d="M14 26C14 24.8954 14.8954 24 16 24H20C21.1046 24 22 24.8954 22 26V26.5C22 27.6046 21.1046 28.5 20 28.5H16C14.8954 28.5 14 27.6046 14 26.5V26Z" stroke="#4A4F53" stroke-width="1.8"/>
<path d="M14 18C14 16.8954 14.8954 16 16 16H20C21.1046 16 22 16.8954 22 18V18.5C22 19.6046 21.1046 20.5 20 20.5H16C14.8954 20.5 14 19.6046 14 18.5V18Z" stroke="#4A4F53" stroke-width="1.8"/>
<path d="M14 10C14 8.89543 14.8954 8 16 8H20C21.1046 8 22 8.89543 22 10V10.5C22 11.6046 21.1046 12.5 20 12.5H16C14.8954 12.5 14 11.6046 14 10.5V10Z" stroke="#4A4F53" stroke-width="1.8"/>
<path d="M25.5 10C27 10 29 11.5 29 14C29 16.5 27 18 25.5 18" stroke="white" stroke-width="2" stroke-linecap="round"/>
<path d="M10.5 18C9 18 7 19.5 7 22C7 24.5 9 26 10.5 26" stroke="white" stroke-width="2" stroke-linecap="round"/>
<defs>
<linearGradient id="paint0_linear_1033_1234" x1="21.9706" y1="5.20574" x2="14.4715" y2="32.9983" gradientUnits="userSpaceOnUse">
<stop stop-color="#CCD6DB"/>
<stop offset="1" stop-color="#CCD6DB"/>
</linearGradient>
</defs>
</svg>
