<svg width="641" height="571" viewBox="0 0 641 571" fill="none" xmlns="http://www.w3.org/2000/svg">
<path d="M439.18 157.5C439.18 244.321 368.797 314.704 281.976 314.704C195.154 314.704 124.772 244.321 124.772 157.5C124.772 70.6787 195.154 0.296112 281.976 0.296112C368.797 0.296112 439.18 70.6787 439.18 157.5Z" fill="#191919"/>
<path d="M629.316 209.694C629.316 296.515 558.933 366.898 472.112 366.898C385.29 366.898 314.908 296.515 314.908 209.694C314.908 122.873 385.29 52.4903 472.112 52.4903C558.933 52.4903 629.316 122.873 629.316 209.694Z" fill="#191919"/>
<path d="M314.908 286.743C314.908 373.564 244.525 443.947 157.704 443.947C70.8826 443.947 0.5 373.564 0.5 286.743C0.5 199.921 70.8826 129.539 157.704 129.539C244.525 129.539 314.908 199.921 314.908 286.743Z" fill="#191919"/>
<path d="M451.607 413.5C451.607 500.321 381.224 570.704 294.403 570.704C207.582 570.704 137.199 500.321 137.199 413.5C137.199 326.679 207.582 256.296 294.403 256.296C381.224 256.296 451.607 326.679 451.607 413.5Z" fill="#191919"/>
<path d="M640.5 367.519C640.5 454.341 570.117 524.723 483.296 524.723C396.475 524.723 326.092 454.341 326.092 367.519C326.092 280.698 396.475 210.316 483.296 210.316C570.117 210.316 640.5 280.698 640.5 367.519Z" fill="#191919"/>
<path d="M354.675 222.121C354.675 278.058 334.645 323.403 309.937 323.403C285.229 323.403 265.199 278.058 265.199 222.121C265.199 166.185 285.229 120.84 309.937 120.84C334.645 120.84 354.675 166.185 354.675 222.121Z" fill="white"/>
<path d="M502.558 244.49C502.558 300.427 482.528 345.772 457.82 345.772C433.112 345.772 413.083 300.427 413.083 244.49C413.083 188.554 433.112 143.209 457.82 143.209C482.528 143.209 502.558 188.554 502.558 244.49Z" fill="white"/>
</svg>
