<svg width="36" height="36" viewBox="0 0 36 36" fill="none" xmlns="http://www.w3.org/2000/svg">
<g clip-path="url(#clip0_646_6515)">
<g filter="url(#filter0_d_646_6515)">
<path d="M21.4001 7.77778C21.4001 5.69137 19.7087 4 17.6223 4H4.77782C2.69142 4 1.00005 5.69137 1.00005 7.77778V16.2011C1.00005 17.9126 2.38748 19.3 4.09896 19.3C4.78238 19.3 5.38509 19.7478 5.58242 20.4021L7.0445 25.25L11.888 20.4065C12.5965 19.698 13.5574 19.3 14.5593 19.3H17.6223C19.7087 19.3 21.4001 17.6087 21.4001 15.5223V7.77778Z" fill="#C0ED54"/>
<path d="M21.4001 7.77778C21.4001 5.69137 19.7087 4 17.6223 4H4.77782C2.69142 4 1.00005 5.69137 1.00005 7.77778V16.2011C1.00005 17.9126 2.38748 19.3 4.09896 19.3C4.78238 19.3 5.38509 19.7478 5.58242 20.4021L7.0445 25.25L11.888 20.4065C12.5965 19.698 13.5574 19.3 14.5593 19.3H17.6223C19.7087 19.3 21.4001 17.6087 21.4001 15.5223V7.77778Z" fill="#52ACFF"/>
<path d="M21.4001 7.77778C21.4001 5.69137 19.7087 4 17.6223 4H4.77782C2.69142 4 1.00005 5.69137 1.00005 7.77778V16.2011C1.00005 17.9126 2.38748 19.3 4.09896 19.3C4.78238 19.3 5.38509 19.7478 5.58242 20.4021L7.0445 25.25L11.888 20.4065C12.5965 19.698 13.5574 19.3 14.5593 19.3H17.6223C19.7087 19.3 21.4001 17.6087 21.4001 15.5223V7.77778Z" fill="url(#paint0_linear_646_6515)" fill-opacity="0.15"/>
</g>
<g filter="url(#filter1_d_646_6515)">
<path d="M14.6 13.726C14.6 11.6396 16.2913 9.94824 18.3778 9.94824H31.2222C33.3086 9.94824 35 11.6396 35 13.726V22.1494C35 23.8608 33.6126 25.2483 31.9011 25.2483C31.2177 25.2483 30.615 25.696 30.4176 26.3503L28.9556 31.1983L24.112 26.3548C23.4036 25.6463 22.4427 25.2483 21.4407 25.2483H18.3777C16.2913 25.2483 14.6 23.5569 14.6 21.4705V13.726Z" fill="#C0ED54"/>
<path d="M14.6 13.726C14.6 11.6396 16.2913 9.94824 18.3778 9.94824H31.2222C33.3086 9.94824 35 11.6396 35 13.726V22.1494C35 23.8608 33.6126 25.2483 31.9011 25.2483C31.2177 25.2483 30.615 25.696 30.4176 26.3503L28.9556 31.1983L24.112 26.3548C23.4036 25.6463 22.4427 25.2483 21.4407 25.2483H18.3777C16.2913 25.2483 14.6 23.5569 14.6 21.4705V13.726Z" fill="#013362"/>
</g>
<path d="M18.85 15.9014H30.75" stroke="white" stroke-width="1.88889" stroke-linecap="round"/>
<path d="M18.85 19.3018H25.65" stroke="white" stroke-width="1.88889" stroke-linecap="round"/>
</g>
<defs>
<filter id="filter0_d_646_6515" x="-0.888827" y="3.05556" width="24.1778" height="25.0278" filterUnits="userSpaceOnUse" color-interpolation-filters="sRGB">
<feFlood flood-opacity="0" result="BackgroundImageFix"/>
<feColorMatrix in="SourceAlpha" type="matrix" values="0 0 0 0 0 0 0 0 0 0 0 0 0 0 0 0 0 0 127 0" result="hardAlpha"/>
<feOffset dy="0.944444"/>
<feGaussianBlur stdDeviation="0.944444"/>
<feComposite in2="hardAlpha" operator="out"/>
<feColorMatrix type="matrix" values="0 0 0 0 0.354069 0 0 0 0 0 0 0 0 0 0.197533 0 0 0 0.15 0"/>
<feBlend mode="normal" in2="BackgroundImageFix" result="effect1_dropShadow_646_6515"/>
<feBlend mode="normal" in="SourceGraphic" in2="effect1_dropShadow_646_6515" result="shape"/>
</filter>
<filter id="filter1_d_646_6515" x="12.7111" y="9.0038" width="24.1778" height="25.0278" filterUnits="userSpaceOnUse" color-interpolation-filters="sRGB">
<feFlood flood-opacity="0" result="BackgroundImageFix"/>
<feColorMatrix in="SourceAlpha" type="matrix" values="0 0 0 0 0 0 0 0 0 0 0 0 0 0 0 0 0 0 127 0" result="hardAlpha"/>
<feOffset dy="0.944444"/>
<feGaussianBlur stdDeviation="0.944444"/>
<feComposite in2="hardAlpha" operator="out"/>
<feColorMatrix type="matrix" values="0 0 0 0 0.354069 0 0 0 0 0 0 0 0 0 0.197533 0 0 0 0.15 0"/>
<feBlend mode="normal" in2="BackgroundImageFix" result="effect1_dropShadow_646_6515"/>
<feBlend mode="normal" in="SourceGraphic" in2="effect1_dropShadow_646_6515" result="shape"/>
</filter>
<linearGradient id="paint0_linear_646_6515" x1="11.2001" y1="4" x2="11.2001" y2="25.25" gradientUnits="userSpaceOnUse">
<stop stop-color="white"/>
<stop offset="1" stop-color="white" stop-opacity="0"/>
</linearGradient>
<clipPath id="clip0_646_6515">
<rect width="36" height="36" fill="white"/>
</clipPath>
</defs>
</svg>
