<svg width="512" height="512" version="1.1" xmlns="http://www.w3.org/2000/svg" desc="Created with imagetracer.js version 1.2.6" ><path fill="rgb(242,242,242)" stroke="rgb(242,242,242)" stroke-width="1" opacity="1" d="M 153.5 93 L 238.5 169 L 248 176 L 248 94.5 L 248.5 94 L 265 94 L 265.5 178 L 365.5 93 L 366 188 L 397.5 188 L 398 188.5 L 398 331 L 359 331 L 359 419.5 L 354.5 416 L 265.5 335 L 265 418 L 248.5 418 L 248 417.5 L 248 335.5 L 246.5 336 L 152.5 420 L 151 420 L 151 331 L 114.5 331 L 114 330.5 L 114 188 L 151.5 188 L 153 186.5 L 153.5 93 Z M 348 130 L 284 184 L 281 188 L 348 188 L 349 187 L 349 131 L 348 130 Z M 171 131 L 170 188 L 234 188 L 171 131 Z M 131 205 L 131 314 L 151 314 L 151 288 L 235 206 L 131 205 Z M 279 205 L 359 287 L 359 314 L 381 314 L 381 205 L 279 205 Z M 248 217 L 197 266 L 168 295 L 168 382 L 178 375 L 248 312 L 248 217 Z M 266 217 L 265 312 L 331 371 L 342 382 L 342 294 L 266 217 Z " /><path fill="rgb(31,31,31)" stroke="rgb(31,31,31)" stroke-width="1" opacity="0.996078431372549" d="M 112.5 1 L 400 1.5 L 112.5 2 L 112.5 1 Z " /><path fill="rgb(31,31,31)" stroke="rgb(31,31,31)" stroke-width="1" opacity="0.996078431372549" d="M 41.5 28 L 38.5 32 L 41.5 28 Z " /><path fill="rgb(31,31,31)" stroke="rgb(31,31,31)" stroke-width="1" opacity="0.996078431372549" d="M 470.5 28 L 473.5 32 L 470.5 28 Z " /><path fill="rgb(31,31,31)" stroke="rgb(31,31,31)" stroke-width="1" opacity="0.996078431372549" d="M 30.5 39 L 27.5 43 L 30.5 39 Z " /><path fill="rgb(31,31,31)" stroke="rgb(31,31,31)" stroke-width="1" opacity="0.996078431372549" d="M 481.5 39 L 484.5 43 L 481.5 39 Z " /><path fill="rgb(31,31,31)" stroke="rgb(31,31,31)" stroke-width="1" opacity="0.996078431372549" d="M 0.5 110 L 1 114.5 L 0 114.5 L 0.5 110 Z " /><path fill="rgb(31,31,31)" stroke="rgb(31,31,31)" stroke-width="1" opacity="0.996078431372549" d="M 511.5 110 L 512 114.5 L 511 114.5 L 511.5 110 Z " /><path fill="rgb(31,31,31)" stroke="rgb(31,31,31)" stroke-width="1" opacity="0.996078431372549" d="M 0.5 397 L 1 401.5 L 0 401.5 L 0.5 397 Z " /><path fill="rgb(31,31,31)" stroke="rgb(31,31,31)" stroke-width="1" opacity="0.996078431372549" d="M 511.5 397 L 512 401.5 L 511 401.5 L 511.5 397 Z " /><path fill="rgb(31,31,31)" stroke="rgb(31,31,31)" stroke-width="1" opacity="0.996078431372549" d="M 27.5 469 L 30.5 473 L 27.5 469 Z " /><path fill="rgb(31,31,31)" stroke="rgb(31,31,31)" stroke-width="1" opacity="0.996078431372549" d="M 484.5 469 L 481.5 473 L 484.5 469 Z " /><path fill="rgb(31,31,31)" stroke="rgb(31,31,31)" stroke-width="1" opacity="0.996078431372549" d="M 38.5 480 L 41.5 484 L 38.5 480 Z " /><path fill="rgb(31,31,31)" stroke="rgb(31,31,31)" stroke-width="1" opacity="0.996078431372549" d="M 473.5 480 L 470.5 484 L 473.5 480 Z " /><path fill="rgb(31,31,31)" stroke="rgb(31,31,31)" stroke-width="1" opacity="0.996078431372549" d="M 112.5 510 L 400 510.5 L 112.5 511 L 112.5 510 Z " /><path fill="rgb(25,25,25)" stroke="rgb(25,25,25)" stroke-width="1" opacity="0.3411764705882353" d="M 103.5 1 L 112 1.5 L 103.5 2 L 103.5 1 Z " /><path fill="rgb(25,25,25)" stroke="rgb(25,25,25)" stroke-width="1" opacity="0.3411764705882353" d="M 400.5 1 L 409 1.5 L 400.5 2 L 400.5 1 Z " /><path fill="rgb(25,25,25)" stroke="rgb(25,25,25)" stroke-width="1" opacity="0.3411764705882353" d="M 96.5 2 L 100 2.5 L 96.5 3 L 96.5 2 Z " /><path fill="rgb(25,25,25)" stroke="rgb(25,25,25)" stroke-width="1" opacity="0.3411764705882353" d="M 412.5 2 L 416 2.5 L 412.5 3 L 412.5 2 Z " /><path fill="rgb(25,25,25)" stroke="rgb(25,25,25)" stroke-width="1" opacity="0.3411764705882353" d="M 91.5 3 L 94 3.5 L 91.5 4 L 91.5 3 Z " /><path fill="rgb(25,25,25)" stroke="rgb(25,25,25)" stroke-width="1" opacity="0.3411764705882353" d="M 418.5 3 L 421 3.5 L 418.5 4 L 418.5 3 Z " /><path fill="rgb(25,25,25)" stroke="rgb(25,25,25)" stroke-width="1" opacity="0.3411764705882353" d="M 69.5 10 L 71 10.5 L 67.5 12 L 67.5 11 L 69.5 10 Z " /><path fill="rgb(25,25,25)" stroke="rgb(25,25,25)" stroke-width="1" opacity="0.3411764705882353" d="M 441.5 10 L 445 11.5 L 443.5 12 L 441.5 10 Z " /><path fill="rgb(25,25,25)" stroke="rgb(25,25,25)" stroke-width="1" opacity="0.3411764705882353" d="M 59.5 15 L 58.5 17 L 59.5 15 Z " /><path fill="rgb(25,25,25)" stroke="rgb(25,25,25)" stroke-width="1" opacity="0.3411764705882353" d="M 452.5 15 L 453.5 17 L 452.5 15 Z " /><path fill="rgb(25,25,25)" stroke="rgb(25,25,25)" stroke-width="1" opacity="0.3411764705882353" d="M 54.5 18 L 53.5 20 L 54.5 18 Z " /><path fill="rgb(25,25,25)" stroke="rgb(25,25,25)" stroke-width="1" opacity="0.3411764705882353" d="M 457.5 18 L 458.5 20 L 457.5 18 Z " /><path fill="rgb(25,25,25)" stroke="rgb(25,25,25)" stroke-width="1" opacity="0.3411764705882353" d="M 51.5 20 L 50.5 22 L 51.5 20 Z " /><path fill="rgb(25,25,25)" stroke="rgb(25,25,25)" stroke-width="1" opacity="0.3411764705882353" d="M 460.5 20 L 461.5 22 L 460.5 20 Z " /><path fill="rgb(25,25,25)" stroke="rgb(25,25,25)" stroke-width="1" opacity="0.3411764705882353" d="M 48.5 22 L 46.5 25 L 48.5 22 Z " /><path fill="rgb(25,25,25)" stroke="rgb(25,25,25)" stroke-width="1" opacity="0.3411764705882353" d="M 463.5 22 L 465.5 25 L 463.5 22 Z " /><path fill="rgb(25,25,25)" stroke="rgb(25,25,25)" stroke-width="1" opacity="0.3411764705882353" d="M 44.5 25 L 42.5 28 L 44.5 25 Z " /><path fill="rgb(25,25,25)" stroke="rgb(25,25,25)" stroke-width="1" opacity="0.3411764705882353" d="M 467.5 25 L 469.5 28 L 467.5 25 Z " /><path fill="rgb(25,25,25)" stroke="rgb(25,25,25)" stroke-width="1" opacity="0.3411764705882353" d="M 38.5 30 L 28.5 41 L 38.5 30 Z " /><path fill="rgb(25,25,25)" stroke="rgb(25,25,25)" stroke-width="1" opacity="0.3411764705882353" d="M 473.5 30 L 483.5 41 L 473.5 30 Z " /><path fill="rgb(25,25,25)" stroke="rgb(25,25,25)" stroke-width="1" opacity="0.3411764705882353" d="M 26.5 43 L 24.5 46 L 26.5 43 Z " /><path fill="rgb(25,25,25)" stroke="rgb(25,25,25)" stroke-width="1" opacity="0.3411764705882353" d="M 485.5 43 L 487.5 46 L 485.5 43 Z " /><path fill="rgb(25,25,25)" stroke="rgb(25,25,25)" stroke-width="1" opacity="0.3411764705882353" d="M 23.5 47 L 21.5 50 L 23.5 47 Z " /><path fill="rgb(25,25,25)" stroke="rgb(25,25,25)" stroke-width="1" opacity="0.3411764705882353" d="M 488.5 47 L 490.5 50 L 488.5 47 Z " /><path fill="rgb(25,25,25)" stroke="rgb(25,25,25)" stroke-width="1" opacity="0.3411764705882353" d="M 20.5 51 L 19.5 53 L 20.5 51 Z " /><path fill="rgb(25,25,25)" stroke="rgb(25,25,25)" stroke-width="1" opacity="0.3411764705882353" d="M 491.5 51 L 492.5 53 L 491.5 51 Z " /><path fill="rgb(25,25,25)" stroke="rgb(25,25,25)" stroke-width="1" opacity="0.3411764705882353" d="M 18.5 54 L 17.5 56 L 18.5 54 Z " /><path fill="rgb(25,25,25)" stroke="rgb(25,25,25)" stroke-width="1" opacity="0.3411764705882353" d="M 493.5 54 L 494.5 56 L 493.5 54 Z " /><path fill="rgb(25,25,25)" stroke="rgb(25,25,25)" stroke-width="1" opacity="0.3411764705882353" d="M 15.5 59 L 14.5 61 L 15.5 59 Z " /><path fill="rgb(25,25,25)" stroke="rgb(25,25,25)" stroke-width="1" opacity="0.3411764705882353" d="M 496.5 59 L 497.5 61 L 496.5 59 Z " /><path fill="rgb(25,25,25)" stroke="rgb(25,25,25)" stroke-width="1" opacity="0.3411764705882353" d="M 3.5 87 L 4 89.5 L 3 89.5 L 3.5 87 Z " /><path fill="rgb(25,25,25)" stroke="rgb(25,25,25)" stroke-width="1" opacity="0.3411764705882353" d="M 508.5 87 L 509 89.5 L 508 89.5 L 508.5 87 Z " /><path fill="rgb(25,25,25)" stroke="rgb(25,25,25)" stroke-width="1" opacity="0.3411764705882353" d="M 2.5 91 L 3 93.5 L 2 93.5 L 2.5 91 Z " /><path fill="rgb(25,25,25)" stroke="rgb(25,25,25)" stroke-width="1" opacity="0.3411764705882353" d="M 509.5 91 L 510 93.5 L 509 93.5 L 509.5 91 Z " /><path fill="rgb(25,25,25)" stroke="rgb(25,25,25)" stroke-width="1" opacity="0.3411764705882353" d="M 1.5 96 L 2 99.5 L 1 99.5 L 1.5 96 Z " /><path fill="rgb(25,25,25)" stroke="rgb(25,25,25)" stroke-width="1" opacity="0.3411764705882353" d="M 510.5 96 L 511 99.5 L 510 99.5 L 510.5 96 Z " /><path fill="rgb(25,25,25)" stroke="rgb(25,25,25)" stroke-width="1" opacity="0.3411764705882353" d="M 0.5 103 L 1 109.5 L 0 109.5 L 0.5 103 Z " /><path fill="rgb(25,25,25)" stroke="rgb(25,25,25)" stroke-width="1" opacity="0.3411764705882353" d="M 511.5 103 L 512 109.5 L 511 109.5 L 511.5 103 Z " /><path fill="rgb(25,25,25)" stroke="rgb(25,25,25)" stroke-width="1" opacity="0.3411764705882353" d="M 0.5 402 L 1 408.5 L 0 408.5 L 0.5 402 Z " /><path fill="rgb(25,25,25)" stroke="rgb(25,25,25)" stroke-width="1" opacity="0.3411764705882353" d="M 511.5 402 L 512 408.5 L 511 408.5 L 511.5 402 Z " /><path fill="rgb(25,25,25)" stroke="rgb(25,25,25)" stroke-width="1" opacity="0.3411764705882353" d="M 1.5 412 L 2 415.5 L 1 415.5 L 1.5 412 Z " /><path fill="rgb(25,25,25)" stroke="rgb(25,25,25)" stroke-width="1" opacity="0.3411764705882353" d="M 510.5 412 L 511 415.5 L 510 415.5 L 510.5 412 Z " /><path fill="rgb(25,25,25)" stroke="rgb(25,25,25)" stroke-width="1" opacity="0.3411764705882353" d="M 2.5 418 L 3 420.5 L 2 420.5 L 2.5 418 Z " /><path fill="rgb(25,25,25)" stroke="rgb(25,25,25)" stroke-width="1" opacity="0.3411764705882353" d="M 509.5 418 L 510 420.5 L 509 420.5 L 509.5 418 Z " /><path fill="rgb(25,25,25)" stroke="rgb(25,25,25)" stroke-width="1" opacity="0.3411764705882353" d="M 3.5 422 L 4 424.5 L 3 424.5 L 3.5 422 Z " /><path fill="rgb(25,25,25)" stroke="rgb(25,25,25)" stroke-width="1" opacity="0.3411764705882353" d="M 508.5 422 L 509 424.5 L 508 424.5 L 508.5 422 Z " /><path fill="rgb(25,25,25)" stroke="rgb(25,25,25)" stroke-width="1" opacity="0.3411764705882353" d="M 14.5 451 L 15.5 453 L 14.5 451 Z " /><path fill="rgb(25,25,25)" stroke="rgb(25,25,25)" stroke-width="1" opacity="0.3411764705882353" d="M 497.5 451 L 496.5 453 L 497.5 451 Z " /><path fill="rgb(25,25,25)" stroke="rgb(25,25,25)" stroke-width="1" opacity="0.3411764705882353" d="M 17.5 456 L 18.5 458 L 17.5 456 Z " /><path fill="rgb(25,25,25)" stroke="rgb(25,25,25)" stroke-width="1" opacity="0.3411764705882353" d="M 494.5 456 L 493.5 458 L 494.5 456 Z " /><path fill="rgb(25,25,25)" stroke="rgb(25,25,25)" stroke-width="1" opacity="0.3411764705882353" d="M 19.5 459 L 20.5 461 L 19.5 459 Z " /><path fill="rgb(25,25,25)" stroke="rgb(25,25,25)" stroke-width="1" opacity="0.3411764705882353" d="M 492.5 459 L 491.5 461 L 492.5 459 Z " /><path fill="rgb(25,25,25)" stroke="rgb(25,25,25)" stroke-width="1" opacity="0.3411764705882353" d="M 21.5 462 L 23.5 465 L 21.5 462 Z " /><path fill="rgb(25,25,25)" stroke="rgb(25,25,25)" stroke-width="1" opacity="0.3411764705882353" d="M 490.5 462 L 488.5 465 L 490.5 462 Z " /><path fill="rgb(25,25,25)" stroke="rgb(25,25,25)" stroke-width="1" opacity="0.3411764705882353" d="M 24.5 466 L 26.5 469 L 24.5 466 Z " /><path fill="rgb(25,25,25)" stroke="rgb(25,25,25)" stroke-width="1" opacity="0.3411764705882353" d="M 487.5 466 L 485.5 469 L 487.5 466 Z " /><path fill="rgb(25,25,25)" stroke="rgb(25,25,25)" stroke-width="1" opacity="0.3411764705882353" d="M 28.5 471 L 38.5 482 L 28.5 471 Z " /><path fill="rgb(25,25,25)" stroke="rgb(25,25,25)" stroke-width="1" opacity="0.3411764705882353" d="M 483.5 471 L 473.5 482 L 483.5 471 Z " /><path fill="rgb(25,25,25)" stroke="rgb(25,25,25)" stroke-width="1" opacity="0.3411764705882353" d="M 42.5 484 L 44.5 487 L 42.5 484 Z " /><path fill="rgb(25,25,25)" stroke="rgb(25,25,25)" stroke-width="1" opacity="0.3411764705882353" d="M 469.5 484 L 467.5 487 L 469.5 484 Z " /><path fill="rgb(25,25,25)" stroke="rgb(25,25,25)" stroke-width="1" opacity="0.3411764705882353" d="M 46.5 487 L 48.5 490 L 46.5 487 Z " /><path fill="rgb(25,25,25)" stroke="rgb(25,25,25)" stroke-width="1" opacity="0.3411764705882353" d="M 465.5 487 L 463.5 490 L 465.5 487 Z " /><path fill="rgb(25,25,25)" stroke="rgb(25,25,25)" stroke-width="1" opacity="0.3411764705882353" d="M 50.5 490 L 51.5 492 L 50.5 490 Z " /><path fill="rgb(25,25,25)" stroke="rgb(25,25,25)" stroke-width="1" opacity="0.3411764705882353" d="M 461.5 490 L 460.5 492 L 461.5 490 Z " /><path fill="rgb(25,25,25)" stroke="rgb(25,25,25)" stroke-width="1" opacity="0.3411764705882353" d="M 53.5 492 L 54.5 494 L 53.5 492 Z " /><path fill="rgb(25,25,25)" stroke="rgb(25,25,25)" stroke-width="1" opacity="0.3411764705882353" d="M 458.5 492 L 457.5 494 L 458.5 492 Z " /><path fill="rgb(25,25,25)" stroke="rgb(25,25,25)" stroke-width="1" opacity="0.3411764705882353" d="M 58.5 495 L 59.5 497 L 58.5 495 Z " /><path fill="rgb(25,25,25)" stroke="rgb(25,25,25)" stroke-width="1" opacity="0.3411764705882353" d="M 453.5 495 L 452.5 497 L 453.5 495 Z " /><path fill="rgb(25,25,25)" stroke="rgb(25,25,25)" stroke-width="1" opacity="0.3411764705882353" d="M 67.5 500 L 71 501.5 L 69.5 502 L 67.5 500 Z " /><path fill="rgb(25,25,25)" stroke="rgb(25,25,25)" stroke-width="1" opacity="0.3411764705882353" d="M 443.5 500 L 445 500.5 L 441.5 502 L 441.5 501 L 443.5 500 Z " /><path fill="rgb(25,25,25)" stroke="rgb(25,25,25)" stroke-width="1" opacity="0.3411764705882353" d="M 91.5 508 L 94 508.5 L 91.5 509 L 91.5 508 Z " /><path fill="rgb(25,25,25)" stroke="rgb(25,25,25)" stroke-width="1" opacity="0.3411764705882353" d="M 418.5 508 L 421 508.5 L 418.5 509 L 418.5 508 Z " /><path fill="rgb(25,25,25)" stroke="rgb(25,25,25)" stroke-width="1" opacity="0.3411764705882353" d="M 96.5 509 L 100 509.5 L 96.5 510 L 96.5 509 Z " /><path fill="rgb(25,25,25)" stroke="rgb(25,25,25)" stroke-width="1" opacity="0.3411764705882353" d="M 412.5 509 L 416 509.5 L 412.5 510 L 412.5 509 Z " /><path fill="rgb(25,25,25)" stroke="rgb(25,25,25)" stroke-width="1" opacity="0.3411764705882353" d="M 103.5 510 L 112 510.5 L 103.5 511 L 103.5 510 Z " /><path fill="rgb(25,25,25)" stroke="rgb(25,25,25)" stroke-width="1" opacity="0.3411764705882353" d="M 400.5 510 L 409 510.5 L 400.5 511 L 400.5 510 Z " /><path fill="rgb(31,31,31)" stroke="rgb(31,31,31)" stroke-width="1" opacity="1" d="M 102.5 2 L 409.5 2 L 432.5 7 L 452.5 16 Q 468.8 25.2 481 38.5 Q 494.7 52.8 503 72.5 L 507 83.5 L 511 102.5 L 511 114.5 L 512 115.5 L 512 396.5 L 511 397.5 L 510 416.5 L 503 439.5 Q 492.5 463.5 474.5 480 Q 459.9 493.4 440.5 502 L 429.5 506 L 409.5 510 L 102.5 510 L 79.5 505 L 59.5 496 Q 43.2 486.8 31 473.5 Q 17.3 459.2 9 439.5 L 5 428.5 L 1 409.5 L 1 397.5 L 0 396.5 L 0 115.5 L 1 114.5 L 2 95.5 L 9 72.5 Q 19.5 48.5 37.5 32 Q 52.1 18.6 71.5 10 L 86.5 5 L 102.5 2 Z M 154 93 L 153 187 L 152 188 L 114 188 L 114 331 L 115 331 L 151 331 L 151 420 L 153 420 L 247 336 L 248 336 L 248 418 L 249 418 L 265 418 L 266 335 L 355 416 L 359 420 L 359 331 L 398 331 L 398 189 L 398 188 L 366 188 L 366 93 L 266 178 L 265 94 L 249 94 L 248 95 L 248 176 L 239 169 L 154 93 Z " /><path fill="rgb(31,31,31)" stroke="rgb(31,31,31)" stroke-width="1" opacity="1" d="M 347.5 130 L 349 130.5 L 349 186.5 L 347.5 188 L 281 188 L 283.5 184 L 347.5 130 Z " /><path fill="rgb(31,31,31)" stroke="rgb(31,31,31)" stroke-width="1" opacity="1" d="M 170.5 131 L 234 187.5 L 170 188 L 170.5 131 Z " /><path fill="rgb(31,31,31)" stroke="rgb(31,31,31)" stroke-width="1" opacity="1" d="M 131 205 L 235 205.5 L 151 287.5 L 151 314 L 131 314 L 131 205 Z " /><path fill="rgb(31,31,31)" stroke="rgb(31,31,31)" stroke-width="1" opacity="1" d="M 278.5 205 L 381 205 L 381 314 L 359 314 L 359 286.5 L 278.5 205 Z " /><path fill="rgb(31,31,31)" stroke="rgb(31,31,31)" stroke-width="1" opacity="1" d="M 247.5 217 L 248 311.5 L 177.5 375 L 168 382 L 168 294.5 L 196.5 266 L 247.5 217 Z " /><path fill="rgb(31,31,31)" stroke="rgb(31,31,31)" stroke-width="1" opacity="1" d="M 265.5 217 L 342 293.5 L 342 381.5 L 330.5 371 L 265 311.5 L 265.5 217 Z " /><path fill="rgb(0,0,0)" stroke="rgb(0,0,0)" stroke-width="1" opacity="0" d="M 0 0 L 511.5 0 L 512 0.5 L 512 102.5 L 511 102.5 L 509 87.5 L 504 72.5 L 498 60.5 Q 488.2 42.8 473.5 30 Q 460.1 17.9 442.5 10 L 428.5 5 L 408.5 1 L 103.5 1 L 83.5 5 L 59.5 15 Q 41.3 25.3 28 40.5 Q 16 54.5 8 72.5 L 2 91.5 L 0.5 103 L 0 0 Z " /><path fill="rgb(0,0,0)" stroke="rgb(0,0,0)" stroke-width="1" opacity="0" d="M 0.5 409 Q 8.2 456.8 38.5 482 Q 51.9 494.1 69.5 502 L 83.5 507 L 103.5 511 L 408.5 511 L 428.5 507 L 452.5 497 Q 470.7 486.7 484 471.5 Q 496 457.5 504 439.5 L 510 420.5 L 511.5 409 L 512 512 L 0.5 512 L 0 511.5 L 0.5 409 Z " /></svg>