<svg xmlns="http://www.w3.org/2000/svg" fill="none" viewBox="0 0 170 42" height="42" width="170">
<g clip-path="url(#clip0_6011_7)">
<path fill="#082B4B" d="M19.6856 26.6332C15.5616 26.6332 12.4492 23.3962 12.4492 19.1193C12.4492 14.8425 15.5115 11.5512 19.7266 11.5015C23.8506 11.5467 26.963 14.8244 26.963 19.1193C26.963 23.4143 23.8324 26.6332 19.6856 26.6332Z"></path>
<path fill="#082B4B" d="M3.28821 19.8877C5.10186 19.8877 6.57374 21.348 6.57374 23.1473V34.8974C6.2183 34.5854 5.87197 34.269 5.54843 33.9389C2.80517 31.2218 0.854817 27.7226 0.0619153 23.8074C-0.348206 21.782 1.21026 19.8922 3.28821 19.8922V19.8877Z"></path>
<path fill="#082B4B" d="M39.771 19.8878C39.771 25.3808 37.529 30.3539 33.9017 33.9526C30.2744 37.5513 25.2618 39.7757 19.7251 39.7757C18.0664 39.7757 16.4533 39.5767 14.913 39.197C13.1769 38.772 11.9693 37.2032 11.9693 35.431V29.5221C14.2022 31.1044 16.8588 31.9544 19.6932 31.9815H19.7251C23.1702 31.977 26.2689 30.7427 28.5929 28.6857C31.0582 26.5066 32.6622 23.4097 32.8718 19.8878C32.89 19.6166 32.8992 19.3498 32.8992 19.0741C32.8992 15.6381 31.5868 12.5548 29.4086 10.2762C27.0162 7.76706 23.5939 6.22088 19.7297 6.21184H19.6978C16.7905 6.21184 14.1338 7.09343 11.9829 8.60797C10.7663 9.46243 9.11665 9.35845 8.06401 8.3141L7.88173 8.13326C6.55567 6.81765 6.7425 4.62497 8.28274 3.55802C11.5181 1.32013 15.4644 0 19.7206 0C25.2572 0 30.2653 2.22433 33.8926 5.82304H33.9017C37.529 9.42174 39.771 14.3948 39.771 19.8878Z"></path>
<path fill="#082B4B" d="M101.356 16.9042C101.356 23.0844 96.3475 28.0122 89.986 28.0122C83.6702 27.967 78.7031 23.0844 78.7031 16.9042C78.7031 10.724 83.6702 5.84131 89.986 5.84131C96.3019 5.84131 101.356 10.724 101.356 16.9042ZM83.3648 16.9494C83.3648 20.8826 86.1947 23.8213 89.986 23.8213C93.7774 23.8213 96.6528 20.8374 96.6528 16.9494C96.6528 13.0613 93.7774 10.0323 90.0316 9.99158C86.1992 10.0368 83.3648 12.9754 83.3648 16.9494Z"></path>
<path fill="#082B4B" d="M116.303 8.17414C116.303 9.42645 115.387 10.29 114.079 10.3804C110.593 10.4663 108.196 12.7991 108.196 16.217V25.6839C108.196 27.0674 107.239 28.0168 105.931 28.0168C104.624 28.0168 103.621 27.0221 103.621 25.6839V8.17414C103.621 6.83593 104.578 5.84131 105.931 5.84131C107.194 5.84131 108.155 6.83593 108.155 8.17414V8.82064C109.595 7.13431 111.728 6.099 114.125 6.099C115.387 6.099 116.303 6.96251 116.303 8.17414Z"></path>
<path fill="#082B4B" d="M133.885 25.6791C133.885 26.6285 133.406 27.2795 132.536 27.5824C131.793 27.8853 130.882 28.0164 129.66 28.0164C124.561 28.0164 121.777 25.4214 121.777 20.6246V10.2535H120.077C118.943 10.2535 118.031 9.43065 118.031 8.30944C118.031 7.18824 118.947 6.32021 120.077 6.32021H121.777V2.59943C121.777 1.30191 122.78 0.266602 124.087 0.266602C125.395 0.266602 126.398 1.26122 126.398 2.59943V6.31569H130.973C132.149 6.31569 133.019 7.1792 133.019 8.30492C133.019 9.43065 132.149 10.2489 130.973 10.2489H126.398V20.2313C126.398 22.8263 127.66 23.9069 130.581 23.9069C131.105 23.9069 131.497 23.8616 131.889 23.8616C133.11 23.8616 133.894 24.5986 133.894 25.6791H133.885Z"></path>
<path fill="#082B4B" d="M154.856 15.6924V15.9094C154.856 17.4646 153.853 18.4186 152.24 18.4186H138.56C139.171 21.8319 141.741 23.993 145.532 23.993C147.36 23.993 149.105 23.4324 150.54 22.3518C150.932 22.0941 151.324 21.9178 151.716 21.9178C152.805 21.9178 153.634 22.7406 153.634 23.8212C153.634 24.5988 153.329 25.1187 152.5 25.7245C150.454 27.239 148.057 28.0166 145.4 28.0166C138.779 28.0166 133.898 23.3058 133.898 16.9538C133.898 10.6018 138.692 5.8457 144.922 5.8457C150.627 5.8457 154.856 9.99597 154.856 15.7015V15.6924ZM138.651 14.8696H150.285C150.198 11.7998 148.02 9.68402 144.794 9.68402C141.568 9.68402 139.348 11.7592 138.651 14.8696Z"></path>
<path fill="#082B4B" d="M169.998 8.17414C169.998 9.42645 169.082 10.29 167.775 10.3804C164.288 10.4663 161.892 12.7991 161.892 16.217V25.6839C161.892 27.0674 160.935 28.0168 159.627 28.0168C158.319 28.0168 157.316 27.0221 157.316 25.6839V8.17414C157.316 6.83593 158.273 5.84131 159.627 5.84131C160.889 5.84131 161.851 6.83593 161.851 8.17414V8.82064C163.291 7.13431 165.423 6.099 167.82 6.099C169.082 6.099 169.998 6.96251 169.998 8.17414Z"></path>
<path fill="#082B4B" d="M66.1104 6.0221C59.8902 6.0221 55.0143 10.8053 55.0143 16.9086V33.668H55.11V33.6906C55.11 33.7177 55.11 33.7448 55.11 33.7674H54.9961L55.0462 34.0568C55.2376 35.1373 56.1854 35.9239 57.2928 35.9239C57.6163 35.9239 57.9262 35.8606 58.2087 35.734C58.3363 35.6798 58.4639 35.612 58.5687 35.5396C59.0016 35.2548 59.3206 34.8253 59.4755 34.3371C59.5165 34.2014 59.5484 34.0522 59.5667 33.8895C59.5712 33.8171 59.5758 33.7403 59.5758 33.6634V25.7472C61.4669 27.0944 63.7135 27.8133 66.1104 27.8314C72.3807 27.8314 77.293 23.0301 77.293 16.9041C77.293 10.7782 72.3807 6.01758 66.1104 6.01758V6.0221ZM72.2713 16.9448C72.2713 20.5706 69.6238 23.3104 66.1104 23.3104C62.597 23.3104 59.9905 20.5752 59.9905 16.9448C59.9905 13.3145 62.5833 10.5386 66.1468 10.5024C69.6374 10.5386 72.2713 13.3099 72.2713 16.9448Z"></path>
<path fill="#082B4B" d="M131.634 41.9411H130.459V34.0701H130.368L126.116 39.1381L121.864 34.0701H121.773V41.9411H120.598V31.1812H120.867L126.116 37.4156L131.361 31.1812H131.63V41.9411H131.634Z"></path>
<path fill="#082B4B" d="M141.77 31.4933V32.506H136.433V36.0911H140.321V37.1038H136.433V40.9241H141.952V41.9368H135.258V31.4888H141.77V31.4933Z"></path>
<path fill="#082B4B" d="M147.702 31.6197C148.595 31.6197 149.416 31.7508 150.163 32.0085C150.938 32.2798 151.585 32.6414 152.118 33.0981C152.674 33.5773 153.102 34.1288 153.403 34.7482C153.717 35.4038 153.872 36.091 153.872 36.8053C153.872 37.5196 153.722 38.2384 153.421 38.8623C153.12 39.4862 152.692 40.0378 152.136 40.517C151.603 40.9736 150.956 41.3398 150.181 41.6066C149.434 41.8688 148.614 41.9954 147.72 41.9954H144.645V31.5474H147.72L147.702 31.6107V31.6197ZM145.82 40.9917H147.72C148.431 40.9917 149.083 40.8832 149.675 40.6662C150.277 40.4492 150.796 40.1508 151.229 39.7801C151.662 39.4048 152.008 38.9573 152.264 38.4374C152.519 37.9174 152.642 37.3568 152.642 36.7555C152.642 36.1543 152.514 35.5801 152.264 35.0737C152.008 34.5538 151.667 34.1062 151.229 33.731C150.792 33.3558 150.281 33.0619 149.694 32.8449C149.101 32.6279 148.45 32.5194 147.739 32.5194H145.838L145.82 41.0008V40.9917Z"></path>
<path fill="#082B4B" d="M157.781 31.4932V41.9412H156.605V31.4932H157.781Z"></path>
<path fill="#082B4B" d="M168.728 41.9414L167.912 39.9929H162.211L161.396 41.9414H160.129L165.014 30.874H165.105L169.99 41.9414H168.723H168.728ZM167.461 38.9802L165.11 33.4465H165.018L162.667 38.9802H167.461Z"></path>
</g>
<defs>
<clipPath id="clip0_6011_7">
<rect fill="white" height="42" width="170"></rect>
</clipPath>
</defs>
</svg>
